<?xml version="1.0" encoding="utf-8"?>
<!-- Generator: Adobe Illustrator 23.0.3, SVG Export Plug-In . SVG Version: 6.00 Build 0)  -->
<svg version="1.1" id="Layer_1" xmlns="http://www.w3.org/2000/svg" xmlns:xlink="http://www.w3.org/1999/xlink" x="0px" y="0px"
	 viewBox="0 0 640 1136" style="enable-background:new 0 0 640 1136;" xml:space="preserve">
<style type="text/css">
	.st0{fill:#FFFFFF;}
	.st1{fill:#F3F2F2;}
	.st2{fill:#DCDCDD;}
	.st3{opacity:0.8;}
	.st4{fill:#5EB1D3;}
	.st5{opacity:0.4;fill:#5EB1D3;}
	.st6{fill:#1F1F1E;}
	.st7{fill:#F5D8E5;}
	.st8{opacity:0.05;}
	.st9{fill:#D64E71;}
	.st10{fill:#FDE5D7;}
	.st11{opacity:0.3;}
	.st12{fill:#D3D3D5;}
	.st13{fill:#D66994;}
	.st14{fill:#F4A5C5;}
	.st15{fill:#C6DAF0;}
	.st16{opacity:0.04;}
	.st17{fill:#B3C0D2;}
	.st18{opacity:0.5;fill:#FFFFFF;}
	.st19{fill:#808080;}
	.st20{fill:#A25667;}
	.st21{fill:#FDD3A2;}
	.st22{opacity:0.5;}
	.st23{fill:#F17C95;}
	.st24{opacity:0.2;}
	.st25{fill:#D31C5B;}
	.st26{opacity:0.2;fill:#D31C5B;}
	.st27{opacity:0.1;fill:#1A1A1A;}
	.st28{fill:#BC425B;}
	.st29{fill:#ACCBC4;}
	.st30{fill:#00A99D;}
	.st31{fill:#F2F2F2;}
	.st32{fill:#FBB03B;}
	.st33{fill:#F69220;}
	.st34{fill:#A5CFED;}
	.st35{fill:#91CAEC;}
	.st36{fill:#B8BABC;}
	.st37{fill:#E9BB62;}
	.st38{opacity:0.1;}
	.st39{fill:#E58925;}
	.st40{fill:#FBB26C;}
	.st41{fill:#E55881;}
	.st42{fill:#D5D6D5;}
	.st43{fill:#B1904B;}
	.st44{fill:#D1D2D4;}
	.st45{fill:#C28B55;}
	.st46{fill:#393E70;}
	.st47{fill:url(#SVGID_1_);}
</style>
<g>
	<rect class="st0" width="640" height="1136"/>
	<path class="st1" d="M128.47,930.3c-0.09,0-0.17,0-0.26,0.01c-0.82-4.04-4.39-7.09-8.68-7.09c-2.52,0-4.8,1.06-6.41,2.75
		c-4.42,0.79-7.93,4.18-8.92,8.53c-0.09,0-0.19-0.01-0.28-0.01c-3.73,0-6.76,3.03-6.76,6.76c0,3.73,3.03,6.76,6.76,6.76
		c1.83,0,3.49-0.73,4.7-1.91c1.83,1.3,4.07,2.07,6.48,2.07c2.7,0,5.18-0.96,7.11-2.55c1.61,1.58,3.81,2.55,6.25,2.55
		c4.93,0,8.93-4,8.93-8.93C137.4,934.3,133.4,930.3,128.47,930.3z"/>
	<path class="st1" d="M51.04,849.81c-0.09,0-0.17,0-0.26,0c-0.82-4.04-4.39-7.09-8.67-7.09c-2.53,0-4.8,1.06-6.41,2.76
		c-4.42,0.79-7.93,4.18-8.92,8.52c-0.09,0-0.19-0.01-0.28-0.01c-3.73,0-6.76,3.03-6.76,6.76c0,3.73,3.03,6.76,6.76,6.76
		c1.83,0,3.49-0.73,4.7-1.91c1.83,1.3,4.07,2.07,6.48,2.07c2.7,0,5.18-0.96,7.11-2.55c1.61,1.58,3.82,2.55,6.25,2.55
		c4.93,0,8.93-4,8.93-8.93S55.98,849.81,51.04,849.81z"/>
	<path class="st1" d="M314.98,912.76c-0.11,0-0.22,0-0.33,0.01c-1.05-5.19-5.64-9.1-11.14-9.1c-3.24,0-6.16,1.36-8.23,3.54
		c-5.67,1.02-10.19,5.36-11.45,10.95c-0.12-0.01-0.24-0.02-0.36-0.02c-4.79,0-8.68,3.89-8.68,8.68c0,4.79,3.89,8.68,8.68,8.68
		c2.35,0,4.48-0.94,6.04-2.45c2.35,1.67,5.22,2.66,8.32,2.66c3.47,0,6.65-1.23,9.13-3.28c2.07,2.03,4.9,3.28,8.02,3.28
		c6.33,0,11.47-5.13,11.47-11.47C326.45,917.89,321.32,912.76,314.98,912.76z"/>
	<path class="st1" d="M603.97,834.23c-0.1,0-0.21,0-0.31,0.01c-0.98-4.86-5.28-8.52-10.43-8.52c-3.04,0-5.77,1.27-7.71,3.31
		c-1.69,0.3-3.26,0.92-4.67,1.79c-0.89-0.33-1.85-0.52-2.85-0.52c-2.31,0-4.4,0.97-5.88,2.52c-4.05,0.73-7.27,3.83-8.17,7.81
		c-0.08,0-0.17-0.01-0.26-0.01c-3.42,0-6.19,2.77-6.19,6.19c0,3.42,2.77,6.19,6.19,6.19c1.46,0,2.8-0.51,3.86-1.36
		c1.43,2.31,3.99,3.85,6.91,3.85c2.2,0,4.19-0.88,5.65-2.29c2.2,1.56,4.89,2.49,7.79,2.49c3.25,0,6.22-1.15,8.55-3.07
		c1.94,1.89,4.59,3.07,7.51,3.07c5.93,0,10.74-4.81,10.74-10.74C614.71,839.04,609.9,834.23,603.97,834.23z"/>
	<path class="st1" d="M633.62,927.26c0-0.04,0-0.08,0-0.13c0-4.93-4-8.93-8.93-8.93c-0.08,0-0.17,0-0.26,0.01
		c-0.82-4.04-4.39-7.09-8.68-7.09c-2.52,0-4.8,1.06-6.41,2.75c-4.42,0.79-7.93,4.18-8.92,8.53c-0.09,0-0.19-0.01-0.28-0.01
		c-3.08,0-5.67,2.06-6.49,4.88H633.62z"/>
	<path class="st2" d="M200.23,842.38c0-0.04,0-0.09,0-0.13c0-4.93-4-8.93-8.93-8.93c-0.09,0-0.17,0-0.26,0.01
		c-0.82-4.04-4.39-7.09-8.67-7.09c-2.53,0-4.8,1.06-6.41,2.75c-4.42,0.79-7.93,4.18-8.92,8.53c-0.09,0-0.19-0.01-0.28-0.01
		c-3.08,0-5.67,2.06-6.49,4.88H200.23z"/>
	<path class="st1" d="M287.53,859.85c0-0.09,0.01-0.18,0.01-0.27c0-10.27-8.33-18.6-18.6-18.6c-0.18,0-0.36,0.01-0.54,0.01
		c-1.7-8.42-9.14-14.76-18.07-14.76c-5.26,0-10,2.21-13.35,5.74c-9.2,1.65-16.52,8.7-18.57,17.75c-0.19-0.01-0.39-0.03-0.58-0.03
		c-6.41,0-11.81,4.29-13.51,10.16H287.53z"/>
	<g class="st3">
		<rect x="480.58" y="1040.3" class="st4" width="3.67" height="7.16"/>
		<path class="st5" d="M636.59,1069.77h-3.04v-15.43h-16.17v-84.21h-10.63v39.6H579.1v-12.17h-16.17v12.17h-6.3V930.9h-14.3v30.93
			h-24.85v21.02h-8.63v-51.47h-8.28v35.5h-6.68v-19.77h-11.82v7.6h1.16v5.1h-1.16v17.09h1.29v5.1h-1.29v0.85h-9.39v37.01h-12.79
			v-99.85h-37.69v35.12h-11.61v-75.05h-11.14v139.79h-8.99V900.71h-24.79v38.34h-27.65v-35.98h2.06c2.28,0,4.13-2.29,4.13-5.11
			v-3.34c0-2.83-1.85-5.11-4.13-5.11h-2.54c0-5.21-3.41-9.44-7.63-9.44c-4.21,0-7.63,4.22-7.63,9.44h-2.54
			c-2.28,0-4.13,2.29-4.13,5.11v3.34c0,2.83,1.85,5.11,4.13,5.11h2.54v116.78h-22.88v-43.5h-14.3v85.23h-11.64V924.73h-41.84v106.84
			h-6.58v30.02h-9.48v-78.74h5.17V974h-5.17v-6.49h-4.1v-12.39h-14.68v12.39h-3.81V974h-5.01v8.85h5.01v78.74h-13.39V955.12h-5.68
			l0.01-8.63H151.9v8.63h-3.85v106.46h-2.56v-88.47h-7.94v88.47h-6.67v-64.11h-15.82v64.11h-6.45v-77.27H98.13v-20.93H72.04v85.41
			h-2.47v-55.33h-20.4v55.33h-4.37v16.82h-5.67v-45.38h-16.7v15.96H17.3v-34.11h-4.93v63.54H8.38v-54.15H1.33v4.53h0.69v3.04H1.33
			v10.19h1.89v3.04H1.33v17.92h2.39v1.42H1.33v17.52H2.6v4.27H1.33v34.54H46.9v5.03h535.59v-4.02h54.1V1069.77z M18.21,1042.62h5.02
			v3.04h-5.02V1042.62z M18.08,1056.48h5.02v3.04h-5.02V1056.48z M25.35,1084.64h-3.45v-4.27h3.45V1084.64z M26.45,1029.21h5.02
			v3.04h-5.02V1029.21z M33.97,1051.69h-5.02v-3.04h5.02V1051.69z M82.81,978.91h3.5v4.33h-3.5V978.91z M82.81,1000.94h3.5v4.33
			h-3.5V1000.94z M82.81,1022.97h3.5v4.33h-3.5V1022.97z M82.81,1045h3.5v4.33h-3.5V1045z M75.03,969.27h3.5v4.33h-3.5V969.27z
			 M75.03,991.3h3.5v4.33h-3.5V991.3z M75.03,1013.34h3.5v4.32h-3.5V1013.34z M75.03,1035.37h0.63v4.33h-0.63V1035.37z
			 M72.04,1051.69v4.78h-2.47v-4.78H72.04z M61.04,1059.71v-2.59h2.11v2.59H61.04z M61.04,996.51h5v6.18h-5V996.51z M61.04,1007.92
			h5v6.18h-5V1007.92z M61.04,1019.32h5v6.18h-5V1019.32z M61.04,1030.73h5v6.18h-5V1030.73z M61.04,1042.13h5v6.18h-5V1042.13z
			 M51.83,996.51h5v6.18h-5V996.51z M51.83,1007.92h5v6.18h-5V1007.92z M51.83,1019.32h5v6.18h-5V1019.32z M51.83,1030.73h5v6.18h-5
			V1030.73z M45.66,1051.69h3.51v4.78h-3.51V1051.69z M45.86,1082.48v-15.13h1.03v15.13H45.86z M94.09,1058.96h-3.5v-4.33h3.5
			V1058.96z M94.09,1036.93h-3.5v-4.33h3.5V1036.93z M94.09,1014.9h-3.5v-4.33h3.5V1014.9z M94.09,992.87h-3.5v-4.33h3.5V992.87z
			 M101.88,1046.56h-3.5v-4.32h3.5V1046.56z M101.88,1024.53h-3.5v-4.32h3.5V1024.53z M101.88,1002.5h-3.5v-4.33h3.5V1002.5z
			 M128.09,1055.34h-11.12v-3.07h11.12V1055.34z M128.09,1048.6h-11.12v-3.07h11.12V1048.6z M128.09,1041.85h-11.12v-3.07h11.12
			V1041.85z M128.09,1035.11h-11.12v-3.07h11.12V1035.11z M128.09,1028.36h-11.12v-3.07h11.12V1028.36z M128.09,1021.62h-11.12
			v-3.07h11.12V1021.62z M128.09,1014.87h-11.12v-3.07h11.12V1014.87z M128.09,1008.13h-11.12v-3.07h11.12V1008.13z M157.97,1006.45
			h-5.4v-6.69h5.4V1006.45z M157.97,969.27h-5.4v-6.68h5.4V969.27z M167.26,1023.55h-5.4v-6.69h5.4V1023.55z M169.96,984.12h-5.4
			v-6.69h5.4V984.12z M175.36,969.27h-5.4v-6.68h5.4V969.27z M237.47,939.78h5.4v6.68h-5.4V939.78z M237.47,980.77h5.4v6.68h-5.4
			V980.77z M245.57,1043.66h-5.4v-6.68h5.4V1043.66z M250.74,1006.45h-5.4v-6.69h5.4V1006.45z M263.45,972.62h-5.4v-6.69h5.4V972.62
			z M263.45,949.81h-5.4v-6.68h5.4V949.81z M300.32,1061.71h-7.59v-9.4h7.59V1061.71z M322.29,1049.09h-7.59v-9.4h7.59V1049.09z
			 M356.22,1053.79h-7.59v-9.4h7.59V1053.79z M365.66,1019.86h-27.65V946.5h27.65V1019.86z M370.69,910.68h5.4v6.68h-5.4V910.68z
			 M373.4,975.96h-5.4v-6.68h5.4V975.96z M373.4,939.78h5.4v6.68h-5.4V939.78z M382.6,1036.97H375v-9.4h7.59V1036.97z
			 M385.08,989.03h-5.4v-3.13h5.4V989.03z M416.96,969.27h11.04v6.68h-11.04V969.27z M416.67,999.76h11.03v6.69h-11.03V999.76z
			 M432.65,1061.71h-7.59v-9.4h7.59V1061.71z M435.07,939.78h11.04v6.68h-11.04V939.78z M451.62,989.24h-11.04v-6.69h11.04V989.24z
			 M556.76,1041.35v-0.48h5.79v0.48H556.76z M562.9,1014.61v8.02h-6.28v-8.02H562.9z M549.47,1037.95h-3.99v-2.9h3.99V1037.95z
			 M524.19,976.9h8.41v5.1h-8.41V976.9z M515.83,1001.18v3.3h-5.45v-3.3H515.83z M477.33,989.24h4.73v10.52h-4.73V989.24z
			 M477.79,1023.67h4.28v20.17h2.12v7.16h-2.12v5.96h-4.28V1023.67z M582.53,1064.9h-0.04v-3.31h-4.1v-4.71h4.13V1064.9z
			 M585.77,1031.74h-6.48v-8.02h6.48V1031.74z M602.98,1022.63h-6.48v-8.02h6.48V1022.63z M611.42,1057.56h-6.48v-8.02h6.48V1057.56
			z"/>
		<rect x="3.45" y="1046.63" class="st4" width="0.06" height="1.42"/>
	</g>
	<rect x="0.64" y="1105.81" class="st6" width="638.72" height="30.19"/>
	<g>
		<rect x="77.14" y="1017.25" class="st7" width="191.65" height="88.37"/>
		<g>
			<path class="st8" d="M262.2,1017.72h-13.67h-13.67h-13.67h-13.67h-13.67h-13.67h-13.67h-13.67h-13.67h-13.67h-13.67H98.19H84.52
				h-7.13v20.07c0.1,0,0.2,0,0.3,0c3.77,0,6.83-1.79,6.83-3.99c0,2.2,3.06,3.99,6.83,3.99c3.77,0,6.83-1.79,6.83-3.99
				c0,2.2,3.06,3.99,6.83,3.99c3.77,0,6.83-1.79,6.83-3.99c0,2.2,3.06,3.99,6.83,3.99s6.83-1.79,6.83-3.99
				c0,2.2,3.06,3.99,6.83,3.99c3.77,0,6.83-1.79,6.83-3.99c0,2.2,3.06,3.99,6.83,3.99c3.77,0,6.83-1.79,6.83-3.99
				c0,2.2,3.06,3.99,6.83,3.99c3.77,0,6.83-1.79,6.83-3.99c0,2.2,3.06,3.99,6.83,3.99c3.77,0,6.83-1.79,6.83-3.99
				c0,2.2,3.06,3.99,6.83,3.99c3.77,0,6.83-1.79,6.83-3.99c0,2.2,3.06,3.99,6.83,3.99c3.77,0,6.83-1.79,6.83-3.99
				c0,2.2,3.06,3.99,6.83,3.99c3.77,0,6.83-1.79,6.83-3.99c0,2.2,3.06,3.99,6.83,3.99c3.77,0,6.83-1.79,6.83-3.99
				c0,2.2,3.06,3.99,6.83,3.99c3.77,0,6.83-1.79,6.83-3.99c0,2.2,3.06,3.99,6.83,3.99c3.77,0,6.83-1.79,6.83-3.99
				c0,2.2,3.06,3.99,6.83,3.99v-20.07H262.2z"/>
			<g>
				<path class="st9" d="M70.85,1000.62v27.58c0,3.77,3.06,6.83,6.83,6.83c3.77,0,6.83-3.06,6.83-6.83v-27.58H70.85z"/>
				<path class="st10" d="M84.52,1000.62v27.58c0,3.77,3.06,6.83,6.83,6.83c3.77,0,6.83-3.06,6.83-6.83v-27.58H84.52z"/>
				<path class="st9" d="M98.19,1000.62v27.58c0,3.77,3.06,6.83,6.83,6.83c3.77,0,6.83-3.06,6.83-6.83v-27.58H98.19z"/>
				<path class="st10" d="M111.85,1000.62v27.58c0,3.77,3.06,6.83,6.83,6.83s6.83-3.06,6.83-6.83v-27.58H111.85z"/>
				<path class="st9" d="M125.52,1000.62v27.58c0,3.77,3.06,6.83,6.83,6.83c3.77,0,6.83-3.06,6.83-6.83v-27.58H125.52z"/>
				<path class="st10" d="M139.19,1000.62v27.58c0,3.77,3.06,6.83,6.83,6.83c3.77,0,6.83-3.06,6.83-6.83v-27.58H139.19z"/>
				<path class="st9" d="M152.86,1000.62v27.58c0,3.77,3.06,6.83,6.83,6.83c3.77,0,6.83-3.06,6.83-6.83v-27.58H152.86z"/>
				<path class="st10" d="M166.52,1000.62v27.58c0,3.77,3.06,6.83,6.83,6.83c3.77,0,6.83-3.06,6.83-6.83v-27.58H166.52z"/>
				<path class="st9" d="M180.19,1000.62v27.58c0,3.77,3.06,6.83,6.83,6.83c3.77,0,6.83-3.06,6.83-6.83v-27.58H180.19z"/>
				<path class="st10" d="M193.86,1000.62v27.58c0,3.77,3.06,6.83,6.83,6.83c3.77,0,6.83-3.06,6.83-6.83v-27.58H193.86z"/>
				<path class="st9" d="M207.53,1000.62v27.58c0,3.77,3.06,6.83,6.83,6.83c3.77,0,6.83-3.06,6.83-6.83v-27.58H207.53z"/>
				<path class="st10" d="M221.19,1000.62v27.58c0,3.77,3.06,6.83,6.83,6.83c3.77,0,6.83-3.06,6.83-6.83v-27.58H221.19z"/>
				<path class="st9" d="M234.86,1000.62v27.58c0,3.77,3.06,6.83,6.83,6.83c3.77,0,6.83-3.06,6.83-6.83v-27.58H234.86z"/>
				<path class="st10" d="M248.53,1000.62v27.58c0,3.77,3.06,6.83,6.83,6.83c3.77,0,6.83-3.06,6.83-6.83v-27.58H248.53z"/>
				<path class="st9" d="M262.2,1000.62v27.58c0,3.77,3.06,6.83,6.83,6.83c3.77,0,6.83-3.06,6.83-6.83v-27.58H262.2z"/>
			</g>
		</g>
		<g>
			<polygon class="st11" points="132.1,1007.22 132.1,1016.68 132.1,1020.84 215.81,1020.84 215.81,1007.22 			"/>
			<g>
				<g>
					<rect x="131.45" y="1006.57" class="st12" width="83.71" height="13.62"/>
					<rect x="133.39" y="1008.01" class="st1" width="79.83" height="10.74"/>
				</g>
				<g>
					<path class="st9" d="M146.02,1015.86c-0.21,0.07-0.46,0.21-0.7,0.21c-0.13,0-0.28-0.03-0.28-0.19c0-0.21,0.42-0.71,0.55-0.88
						c0.08-0.11,0.14-0.21,0.28-0.25c0.38-0.09,0.78-0.1,1.15-0.17l2.59-3.08c0.32-0.38,1.63-1.71,2.1-1.71
						c0.3,0,0.45,0.32,0.45,0.58c0,0.57-0.73,1.61-1.02,2.12c0.07,0.01,0.16,0.03,0.16,0.13c0,0.16-0.37,0.43-0.5,0.52
						c-0.15,0.11-0.61,0.46-0.78,0.46c-0.16,0-0.21-0.13-0.21-0.27c0-0.67,0.77-1.64,1.19-2.12c0.07-0.08,0.08-0.17,0.02-0.17
						c-0.12,0-0.5,0.36-1.49,1.49l-1.78,2.04c1.48,0.29,2.25,0.44,3.58,0.76l-0.47,0.47c-0.57,0.57-0.53,0.59-2.28,0.22
						c-0.78-0.17-1.58-0.28-2.38-0.25L146.02,1015.86z"/>
					<path class="st9" d="M153.24,1015.42c-0.17,0.13-0.74,0.6-0.94,0.6c-0.25,0-0.77-0.59-0.78-1.05
						c-0.04-1.12,2.28-2.26,3.32-2.28c0.41-0.01,0.58,0.32,0.58,0.43c0,0.11-0.23,0.2-0.31,0.22c0.17,0.07,0.26,0.17,0.26,0.37
						c0,0.29-0.78,0.91-0.78,1.33c0,0.15,0.13,0.21,0.28,0.21c0.37,0,0.88-0.46,1.27-0.71l0.07,0.33c-0.38,0.44-1.58,1.39-2.02,1.39
						c-0.29,0-0.43-0.21-0.43-0.47c0-0.29,0.21-0.76,0.33-1l-0.02-0.02L153.24,1015.42z M152.16,1015.19
						c0.01,0.04,0.04,0.2,0.18,0.18c0.18-0.04,0.46-0.01,2.22-1.79l-0.02-0.02C152.42,1014.21,152.16,1014.76,152.16,1015.19z"/>
					<path class="st9" d="M158.57,1009.92c0.14,0,0.45,0,0.45,0.21c0,0.24-0.27,0.81-0.42,0.99c-0.53,0.66-0.72,0.59-0.92,0.59
						c0.14-0.19,0.29-0.38,0.4-0.61c-0.16-0.05-0.34-0.11-0.34-0.31C157.75,1010.42,158.19,1009.92,158.57,1009.92z"/>
					<path class="st9" d="M161.73,1012.31c-0.42,0.85-0.49,1.18-1.47,1.11c-0.3,0.39-0.81,1.12-0.81,1.66c0,0.2,0.06,0.31,0.27,0.31
						c0.29,0,0.61-0.27,1.53-0.93l0.04,0.39c-0.53,0.48-1.49,1.44-2.25,1.44c-0.35,0-0.56-0.24-0.56-0.6c0-0.29,0.12-0.63,0.23-0.89
						l-0.02-0.02l-0.45,0.37l-0.1-0.34c0.53-0.41,1.02-0.86,1.36-1.43c-0.54,0-0.37-0.04-0.85,0.04l0.1-0.16
						c0.48-0.79,0.55-0.93,1.51-0.96c0.27-0.37,0.46-0.79,0.98-0.79c0.12,0,0.29,0.03,0.29,0.17c0,0.16-0.26,0.46-0.35,0.58
						L161.73,1012.31z"/>
					<path class="st9" d="M162.69,1015.42c-0.17,0.13-0.74,0.6-0.95,0.6c-0.25,0-0.77-0.59-0.78-1.05
						c-0.04-1.12,2.28-2.26,3.32-2.28c0.41-0.01,0.58,0.32,0.58,0.43c0,0.11-0.23,0.2-0.31,0.22c0.17,0.07,0.26,0.17,0.26,0.37
						c0,0.29-0.78,0.91-0.78,1.33c0,0.15,0.13,0.21,0.28,0.21c0.37,0,0.88-0.46,1.27-0.71l0.07,0.33c-0.38,0.44-1.58,1.39-2.02,1.39
						c-0.29,0-0.43-0.21-0.43-0.47c0-0.29,0.21-0.76,0.33-1l-0.02-0.02L162.69,1015.42z M161.61,1015.19
						c0.01,0.04,0.04,0.2,0.18,0.18c0.18-0.04,0.45-0.01,2.22-1.79l-0.02-0.02C161.87,1014.21,161.61,1014.76,161.61,1015.19z"/>
					<path class="st9" d="M166.14,1014.91c0.44-0.35,2.06-1.77,2.55-1.77c0.21,0,0.43,0.22,0.43,0.43c0,0.17-0.36,0.56-0.46,0.69
						c-0.55,0.67-0.53,0.7-0.53,0.78c0,0.12,0.09,0.19,0.2,0.19c0.29,0,0.94-0.48,1.2-0.65l0.04,0.37
						c-0.41,0.31-1.49,1.19-1.98,1.19c-0.27,0-0.41-0.23-0.41-0.47c0-0.56,0.62-1.24,0.94-1.66l-0.02-0.02
						c-1.52,1.04-1.97,1.99-2.26,1.99c-0.31,0-0.36-0.69-0.36-0.9c0-0.62,0.23-1.04,0.54-1.55c1.05-1.74,2.83-3.3,3.13-3.3
						c0.14,0,0.38,0.06,0.38,0.24c0,0.61-2.84,3.55-3.41,4.11V1014.91z"/>
					<path class="st9" d="M171.49,1015.79c-0.21,1.43-1.6,2.34-2.18,2.4c-0.24,0.03-0.4-0.2-0.4-0.43c-0.01-0.49,0.45-0.87,0.8-1.16
						l1.16-0.93c-0.09-0.38-0.22-0.42-0.57-0.52c-0.13-0.04-0.35-0.05-0.32-0.22c0.04-0.29,0.63-0.53,1.62-1.35l-0.02-0.02
						l-1.09,0.19l-1.02,1.11l-0.1-0.29l0.62-0.76c-0.13-0.03-0.24-0.08-0.24-0.24c0-0.33,0.69-0.95,0.97-0.95
						c0.17,0,0.22,0.17,0.22,0.31c0.7-0.11,1.01-0.26,1.19-0.26c0.17,0,0.28,0.61,0.28,0.7c0,0.14-0.16,0.28-0.27,0.35l-1.14,0.83
						c0.24,0.18,0.39,0.41,0.46,0.7l1.41-1.09l0.03,0.38L171.49,1015.79z M169.83,1017.02c-0.25,0.2-0.45,0.4-0.48,0.72
						c0.61-0.16,1.39-0.88,1.51-1.52L169.83,1017.02z"/>
					<path class="st9" d="M174.25,1015.42c-0.17,0.13-0.74,0.6-0.94,0.6c-0.25,0-0.77-0.59-0.78-1.05
						c-0.04-1.12,2.28-2.26,3.32-2.28c0.41-0.01,0.58,0.32,0.58,0.43c0,0.11-0.23,0.2-0.31,0.22c0.17,0.07,0.26,0.17,0.26,0.37
						c0,0.29-0.78,0.91-0.78,1.33c0,0.15,0.13,0.21,0.28,0.21c0.37,0,0.88-0.46,1.27-0.71l0.07,0.33c-0.38,0.44-1.58,1.39-2.02,1.39
						c-0.29,0-0.43-0.21-0.43-0.47c0-0.29,0.21-0.76,0.33-1l-0.02-0.02L174.25,1015.42z M173.17,1015.19
						c0.01,0.04,0.04,0.2,0.18,0.18c0.18-0.04,0.45-0.01,2.22-1.79l-0.02-0.02C173.43,1014.21,173.17,1014.76,173.17,1015.19z"/>
					<path class="st9" d="M181.32,1014.27l0.07,0.39c-0.47,0.42-1.39,1.52-2.04,1.52c-0.34,0-0.5-0.29-0.5-0.59
						c0-0.53,0.48-1.12,0.77-1.53l-0.02-0.02c-0.52,0.38-0.97,0.85-1.37,1.36c-0.13,0.17-0.46,0.61-0.7,0.61
						c-0.39,0-0.49-0.56-0.5-0.86c-0.03-0.61,0.53-1.52,1.05-1.95c0.12-0.1,0.2-0.11,0.35-0.11c0.54,0.02,0.49,0.14,0.49,0.2
						c0,0.35-1.12,1.25-1.12,1.46c0,0.05,0.04,0.1,0.1,0.1c0.06,0,0.14-0.08,0.18-0.13c0.71-0.91,2.35-2,2.61-2
						c0.04,0,0.09,0.04,0.14,0.17c0.05,0.13,0.11,0.3,0.13,0.48c0,0.35-1.1,1.03-1.1,1.64c0,0.08,0.07,0.16,0.16,0.16
						c0.21,0,0.61-0.31,0.77-0.45L181.32,1014.27z"/>
					<path class="st9" d="M188.04,1012.63c0.06-0.06,0.36-0.35,0.45-0.35c0.09,0,0.13,0.06,0.09,0.21l0.02,0.02
						c0.86-0.75,1.43-1.55,1.43-1.85c0-0.15-0.1-0.21-0.24-0.18c-0.16,0.04-1.18,0.08-3.17,2.42c-0.62,0.73-1.08,1.72-1.08,2.4
						c0,0.63,0.3,1.01,0.95,1.01c1.12,0,3.09-1.46,3.93-2.21c0.03,0.46-0.12,0.58-0.45,0.9c-1.74,1.68-3.22,2.21-4.06,2.21
						c-0.99,0-1.7-0.62-1.7-1.64c0-1.31,1.1-2.72,2.01-3.59c0.76-0.72,2.63-2.15,3.69-2.15c0.53,0,0.88,0.29,0.91,0.85
						c0.06,1.2-2.24,3.49-3.36,3.66c-0.26,0.04-0.5-0.14-0.5-0.43c0-0.27,0.24-0.54,0.43-0.7L188.04,1012.63z"/>
					<path class="st9" d="M192.1,1015.42c-0.17,0.13-0.74,0.6-0.95,0.6c-0.25,0-0.77-0.59-0.78-1.05c-0.04-1.12,2.28-2.26,3.32-2.28
						c0.41-0.01,0.58,0.32,0.58,0.43c0,0.11-0.23,0.2-0.31,0.22c0.17,0.07,0.26,0.17,0.26,0.37c0,0.29-0.78,0.91-0.78,1.33
						c0,0.15,0.13,0.21,0.28,0.21c0.37,0,0.88-0.46,1.27-0.71l0.07,0.33c-0.38,0.44-1.58,1.39-2.02,1.39
						c-0.29,0-0.43-0.21-0.43-0.47c0-0.29,0.21-0.76,0.33-1l-0.02-0.02L192.1,1015.42z M191.03,1015.19
						c0.01,0.04,0.04,0.2,0.18,0.18c0.18-0.04,0.45-0.01,2.22-1.79l-0.02-0.02C191.28,1014.21,191.03,1014.76,191.03,1015.19z"/>
					<path class="st9" d="M196.1,1014.49c0.26,0.15,0.35,0.45,0.46,0.71l1.2-0.75l0.1,0.33c-0.36,0.32-0.71,0.63-1.15,0.85
						c0.04,0.17,0.02,0.33,0.01,0.49c-0.07,1.06-1.32,2.04-1.97,2.14c-0.41,0.06-0.53-0.77-0.53-1.06c0-0.58,0.38-1.28,0.62-1.79
						c-0.14-0.15-0.26-0.29-0.26-0.51c0-0.36,0.24-0.46,0.5-0.6c0.53-0.29,0.81-0.7,1.09-1.21c0.23-0.44,1.38-2.56,1.84-2.56
						c0.2,0,0.21,0.25,0.21,0.39c0,0.35-0.27,0.97-0.46,1.25L196.1,1014.49z M196.06,1015.79c-0.29,0.02-0.43,0.01-0.64-0.07
						c-0.23,0.39-0.37,0.71-0.41,1.01c-0.04,0.29,0.04,0.54,0.18,0.79C195.74,1017.15,196.14,1016.46,196.06,1015.79z"/>
					<path class="st9" d="M201.07,1014.7c-0.54,0.63-1.52,1.47-2.41,1.47c-0.65,0-0.95-0.58-0.97-1.17
						c-0.04-1.17,1.26-2.36,2.42-2.35c0.29,0,0.64,0.07,0.64,0.43c0,0.44-0.44,1.1-2.15,1.66l-0.02,0.2
						c-0.03,0.34,0.27,0.46,0.55,0.46c0.63,0,1.38-0.65,1.85-1.03L201.07,1014.7z M199.96,1013.27c0-0.06-0.04-0.12-0.11-0.1
						c-0.45,0.12-0.96,0.54-1.2,1.13C199.43,1014.03,199.97,1013.42,199.96,1013.27z"/>
				</g>
				<polygon class="st9" points="140.4,1013.54 141.41,1009.7 139.19,1009.7 140.2,1013.54 140.2,1016.25 139.78,1016.25 
					139.78,1016.44 140.82,1016.44 140.82,1016.25 140.4,1016.25 				"/>
				<g>
					<path class="st13" d="M207.66,1015.29c0.23,0.04,0.5,0.01,0.75-0.09c0.55-0.23,0.85-0.74,0.66-1.14
						c-0.14-0.3-0.51-0.45-0.92-0.41c0-0.05-0.01-0.1-0.02-0.15h-4.99c-0.02,0.12-0.03,0.25-0.03,0.38c0,1.04,0.65,1.88,1.45,1.88
						h-1.9v0.19h5.98v-0.19h-1.94C207.08,1015.75,207.41,1015.57,207.66,1015.29z M208.88,1014.14c0.15,0.32-0.09,0.74-0.53,0.92
						c-0.19,0.08-0.39,0.1-0.56,0.08c0.24-0.33,0.38-0.78,0.38-1.26c0-0.02,0-0.04,0-0.07
						C208.48,1013.78,208.77,1013.9,208.88,1014.14z"/>
					<g>
						<path class="st13" d="M205.36,1012.59c0,0-0.46-0.98,0.12-1.44c0.25-0.2,0.08-0.73,0.01-1.14
							C205.69,1011,204.48,1011.08,205.36,1012.59z"/>
						<path class="st13" d="M205.6,1013.07c0,0,0.31-0.35-0.12-0.7c-0.18-0.15-0.06-0.55,0-0.86
							C205.33,1012.25,206.25,1011.93,205.6,1013.07z"/>
					</g>
				</g>
				<polygon class="st8" points="131.45,1016.03 131.45,1006.57 215.16,1006.57 				"/>
			</g>
		</g>
		<g>
			<rect x="84.52" y="1038.44" class="st14" width="34.17" height="67.01"/>
			<rect x="86.21" y="1040.07" class="st15" width="31.08" height="31.08"/>
			<rect x="86.21" y="1072.94" class="st15" width="31.08" height="31.08"/>
			<g>
				<path class="st9" d="M107.25,1061.68H96.24c-0.55,0-0.73-0.24-0.79-0.39c-0.06-0.15-0.1-0.45,0.29-0.83l5.03-5.03
					c0.26-0.26,0.61-0.4,0.98-0.4c0.37,0,0.72,0.14,0.98,0.4l5.03,5.03c0.39,0.39,0.35,0.69,0.29,0.83
					C107.99,1061.44,107.8,1061.68,107.25,1061.68z M101.75,1055.51c-0.24,0-0.46,0.09-0.63,0.26l-5.03,5.03
					c-0.16,0.16-0.19,0.28-0.18,0.3c0.01,0.03,0.11,0.08,0.34,0.08h11.01c0.23,0,0.33-0.06,0.34-0.08c0.01-0.03-0.02-0.14-0.18-0.3
					l-5.03-5.03C102.21,1055.6,101.99,1055.51,101.75,1055.51z"/>
			</g>
			<g>
				<rect x="93.07" y="1060.46" class="st10" width="17.36" height="5.21"/>
				<g>
					<path class="st9" d="M99.19,1063.11c0,0.44-0.11,0.79-0.33,1.04c-0.22,0.25-0.53,0.38-0.93,0.38c-0.4,0-0.72-0.12-0.94-0.37
						c-0.22-0.25-0.33-0.6-0.33-1.05c0-0.45,0.11-0.79,0.33-1.04c0.22-0.25,0.53-0.37,0.94-0.37c0.39,0,0.7,0.13,0.92,0.38
						C99.08,1062.33,99.19,1062.67,99.19,1063.11z M97.01,1063.11c0,0.37,0.08,0.66,0.24,0.85c0.16,0.19,0.39,0.29,0.69,0.29
						c0.3,0,0.53-0.1,0.69-0.29c0.16-0.19,0.23-0.47,0.23-0.85c0-0.37-0.08-0.65-0.23-0.84c-0.15-0.19-0.38-0.29-0.69-0.29
						c-0.3,0-0.54,0.1-0.69,0.29C97.08,1062.47,97.01,1062.75,97.01,1063.11z"/>
					<path class="st9" d="M101.55,1062.54c0,0.28-0.09,0.49-0.28,0.64c-0.19,0.15-0.46,0.22-0.81,0.22h-0.32v1.08h-0.32v-2.75h0.71
						C101.21,1061.74,101.55,1062.01,101.55,1062.54z M100.13,1063.14h0.29c0.28,0,0.49-0.05,0.61-0.14
						c0.13-0.09,0.19-0.24,0.19-0.44c0-0.18-0.06-0.32-0.18-0.41c-0.12-0.09-0.3-0.13-0.56-0.13h-0.36V1063.14z"/>
					<path class="st9" d="M103.66,1064.49h-1.53v-2.75h1.53v0.28h-1.21v0.89h1.14v0.28h-1.14v1.01h1.21V1064.49z"/>
					<path class="st9" d="M106.41,1064.49h-0.36l-1.5-2.31h-0.01c0.02,0.27,0.03,0.52,0.03,0.74v1.56h-0.29v-2.75h0.36l1.5,2.3h0.02
						c0-0.03-0.01-0.14-0.02-0.33c-0.01-0.18-0.01-0.32-0.01-0.39v-1.58h0.3V1064.49z"/>
				</g>
			</g>
			<path class="st10" d="M102.35,1055.96c0,0.33-0.27,0.6-0.6,0.6c-0.33,0-0.6-0.27-0.6-0.6c0-0.33,0.27-0.6,0.6-0.6
				C102.08,1055.36,102.35,1055.62,102.35,1055.96z"/>
			<polygon class="st16" points="84.52,1065.19 84.52,1038.44 118.69,1038.44 			"/>
		</g>
		<g>
			<rect x="121.8" y="1038.55" class="st14" width="138.64" height="46.54"/>
			<rect x="123.45" y="1040.48" class="st15" width="134.28" height="42.63"/>
			<g>
				<path class="st17" d="M135.36,1069.04c-0.96,0.14-1.68,0.83-1.68,1.66v12.42h1v-12.61
					C134.67,1069.92,134.94,1069.4,135.36,1069.04z"/>
				<path class="st17" d="M211.06,1069.04c0.42,0.35,0.69,0.88,0.69,1.47v12.61h1v-12.42
					C212.74,1069.88,212.01,1069.19,211.06,1069.04z"/>
				<path class="st17" d="M180.23,1067.98c0.09,0.2,0.24,0.59,0.37,1.09c0.18-0.23,0.38-0.46,0.54-0.69
					c0.58-0.84,1.04-1.26,0.52-1.65c-0.23-0.17-1,0-1.59,0.2c0,0.01,0,0.02,0,0.03c0,0.01,0,0.03,0,0.04c0,0.11,0,0.22,0.01,0.33
					c0,0.01,0,0.03,0,0.04c0,0.04,0.01,0.08,0.01,0.12c0,0.02,0,0.04,0.01,0.05c0,0.03,0.01,0.07,0.02,0.1
					c0,0.02,0.01,0.04,0.01,0.05c0.01,0.03,0.02,0.07,0.02,0.1c0,0.01,0.01,0.03,0.01,0.04
					C180.19,1067.89,180.21,1067.94,180.23,1067.98z"/>
				<path class="st17" d="M137.8,1069.04c0.42,0.35,0.69,0.88,0.69,1.47v12.61h1v-12.42
					C139.49,1069.88,138.76,1069.19,137.8,1069.04z"/>
				<path class="st17" d="M187.42,1072.76c0.37-0.16,0.56-0.53,0.44-0.82c-0.09-0.21-0.33-0.32-0.59-0.3c0,0.02,0,0.04,0,0.06
					c0,0.43-0.12,0.83-0.31,1.13C187.1,1072.85,187.27,1072.83,187.42,1072.76z"/>
				<path class="st17" d="M161.16,1071.64c-0.26-0.02-0.5,0.09-0.59,0.3c-0.12,0.29,0.07,0.65,0.44,0.82
					c0.16,0.07,0.32,0.09,0.47,0.07c-0.19-0.3-0.31-0.69-0.31-1.13C161.15,1071.68,161.16,1071.66,161.16,1071.64z"/>
				<path class="st17" d="M208.61,1069.04c-0.96,0.14-1.68,0.83-1.68,1.66v12.42h1v-12.61
					C207.92,1069.92,208.19,1069.4,208.61,1069.04z"/>
				<path class="st17" d="M193.92,1082.37l0.82-0.48v-0.29v-1.85v-0.45v-0.38v-0.66v-0.36v-0.29v-1.33v-0.22v-1.85v-0.66h-0.18
					h-0.91h-0.94h-1.85h-0.24h-1.6h-1.34v-0.17h-1.6c0.3,0,0.57-0.16,0.78-0.41c0.19,0.04,0.41,0.01,0.62-0.08
					c0.45-0.2,0.7-0.66,0.54-1.01c-0.12-0.27-0.42-0.4-0.76-0.37c0-0.05-0.01-0.09-0.01-0.13h-1.49h-2.62
					c-0.02,0.11-0.02,0.22-0.02,0.34c0,0.92,0.54,1.67,1.2,1.67h-1.56v0.17h-1.12h-0.09h-1.37c0.8-1.19,0.79-2.65,0.58-3.8
					c0.17-0.39,0.44-0.77,0.69-1.13c0.54-0.78,1.06-1.52,0.36-2.06c-0.33-0.25-1.19-0.03-1.72,0.15c0-0.01,0-0.01,0-0.02
					c0-0.02,0-0.04,0-0.06c0-0.03,0-0.07,0.01-0.1c0-0.02,0-0.04,0-0.06c0-0.03,0-0.05,0.01-0.08c0.02-0.19,0.04-0.34,0.05-0.44
					h0.01c0.08,0,0.15-0.07,0.15-0.15c0-0.08-0.07-0.15-0.15-0.15h-0.06c-0.02-0.02-0.04-0.04-0.07-0.05
					c-0.01-0.01-0.03-0.02-0.04-0.02c-0.01-0.01-0.03-0.02-0.05-0.03c-0.02-0.01-0.04-0.02-0.06-0.03
					c-0.01-0.01-0.02-0.01-0.04-0.02c-0.03-0.01-0.06-0.02-0.09-0.03c-0.01,0-0.02,0-0.02-0.01c-0.03-0.01-0.07-0.02-0.11-0.03
					c0,0-0.01,0-0.01,0c-0.04-0.01-0.08-0.02-0.13-0.03c0,0,0,0,0,0c-0.09-0.02-0.19-0.03-0.3-0.05h0c-0.03,0-0.06-0.01-0.09-0.01
					c-0.02-0.08-0.13-0.15-0.28-0.15c-0.14,0-0.25,0.06-0.27,0.14c-0.5,0.03-0.91,0.15-1.08,0.32h-0.06c-0.08,0-0.15,0.07-0.15,0.15
					c0,0.01,0,0.03,0.01,0.04h-0.68h-0.13c0,0,0,0,0.01,0c0,0,0,0,0,0c0.01,0,0.04,0,0.07,0l0,0c0.02,0,0.03,0,0.05,0.01
					c0.37,0.05,1.38,0.36,0.69,2.13c-0.27,0.7-1.32,3.54,0.05,5.57h-1.25h-0.36l-1.21-2.48v-2l0,0l0,0h-4.48l0,0h0v4.48h-0.59h-0.74
					h-1.85h-0.44h-0.72v-0.17h-1.56c0.66,0,1.2-0.75,1.2-1.67c0-0.12-0.01-0.23-0.02-0.34h-1.51h-2.61
					c-0.01,0.04-0.01,0.09-0.02,0.13c-0.34-0.03-0.64,0.1-0.76,0.37c-0.15,0.36,0.09,0.81,0.54,1.01c0.21,0.09,0.43,0.12,0.62,0.08
					c0.21,0.25,0.48,0.41,0.78,0.41h-1.6v0.17h-0.39h-0.9h-1.85h-0.28h-1.56h-1.46h-0.38h-1.85h-0.3v0.3v0.19v1.65v1.37v0.47v1.85v0
					v0.64v0.06v0.6v0.54v0.46v1.38v0.04H194L193.92,1082.37z M187.27,1071.7c0-0.02,0-0.04,0-0.06c0.26-0.02,0.5,0.09,0.59,0.3
					c0.12,0.29-0.07,0.65-0.44,0.82c-0.16,0.07-0.32,0.09-0.46,0.07C187.15,1072.53,187.27,1072.14,187.27,1071.7z M161,1072.76
					c-0.37-0.16-0.56-0.53-0.44-0.82c0.09-0.21,0.33-0.32,0.59-0.3c0,0.02,0,0.04,0,0.06c0,0.43,0.12,0.83,0.31,1.13
					C161.32,1072.85,161.16,1072.83,161,1072.76z M180.14,1067.71c0-0.02-0.01-0.04-0.01-0.05c-0.01-0.03-0.01-0.07-0.02-0.1
					c0-0.02-0.01-0.04-0.01-0.05c-0.01-0.04-0.01-0.08-0.01-0.12c0-0.01,0-0.03,0-0.04c-0.01-0.11-0.01-0.22-0.01-0.33
					c0-0.01,0-0.03,0-0.04c0-0.01,0-0.02,0-0.03c0.59-0.2,1.36-0.38,1.59-0.2c0.51,0.39,0.06,0.82-0.52,1.65
					c-0.16,0.23-0.35,0.46-0.54,0.69c-0.13-0.5-0.28-0.89-0.37-1.09c-0.02-0.04-0.03-0.08-0.05-0.13c0-0.01-0.01-0.03-0.01-0.04
					C180.16,1067.78,180.15,1067.74,180.14,1067.71z"/>
				<path class="st17" d="M184.96,1070.56c0,0-0.38-0.87,0.1-1.28c0.2-0.18,0.06-0.65,0.01-1.02
					C185.23,1069.15,184.23,1069.22,184.96,1070.56z"/>
				<path class="st17" d="M185.23,1070.84c-0.02,0.05-0.04,0.09-0.07,0.15C185.16,1070.99,185.2,1070.93,185.23,1070.84z"/>
				<path class="st17" d="M185.06,1069.59c-0.04,0.28-0.15,0.64,0,0.77c0.2,0.18,0.2,0.36,0.17,0.48
					C185.62,1070.01,184.94,1070.23,185.06,1069.59z"/>
				<path class="st17" d="M163.47,1070.56c0.73-1.34-0.27-1.41-0.11-2.3c-0.06,0.37-0.2,0.84,0.01,1.02
					C163.84,1069.69,163.47,1070.56,163.47,1070.56z"/>
				<path class="st17" d="M163.2,1070.84c0.03,0.09,0.07,0.15,0.07,0.15C163.24,1070.94,163.22,1070.89,163.2,1070.84z"/>
				<path class="st17" d="M163.37,1070.36c0.15-0.13,0.05-0.49,0-0.77c0.12,0.64-0.56,0.41-0.17,1.25
					C163.16,1070.72,163.16,1070.54,163.37,1070.36z"/>
				<path class="st17" d="M206.93,1070.7c0-0.83,0.73-1.52,1.68-1.66c-0.42,0.35-0.69,0.88-0.69,1.47v12.61h3.82v-12.61
					c0-0.59-0.27-1.12-0.69-1.47c0.96,0.14,1.69,0.83,1.69,1.66v12.42h0.82v-12.42c0-1.3-1.29-2.36-2.87-2.36h-1.72
					c-1.58,0-2.87,1.06-2.87,2.36v12.42h0.82V1070.7z"/>
				<path class="st17" d="M133.67,1070.7c0-0.83,0.73-1.52,1.68-1.66c-0.42,0.35-0.69,0.88-0.69,1.47v12.61h3.82v-12.61
					c0-0.59-0.27-1.12-0.69-1.47c0.96,0.14,1.69,0.83,1.69,1.66v12.42h0.82v-12.42c0-1.3-1.29-2.36-2.87-2.36h-1.72
					c-1.58,0-2.87,1.06-2.87,2.36v12.42h0.82V1070.7z"/>
			</g>
			<polygon class="st18" points="257.73,1040.48 175.44,1040.48 123.45,1058.2 123.45,1083.12 133.48,1083.12 257.73,1040.78 			"/>
			<polygon class="st18" points="153.31,1083.12 257.73,1047.54 257.73,1044 142.91,1083.12 			"/>
			<polygon class="st18" points="236.76,1083.12 257.73,1075.97 257.73,1072.43 226.36,1083.12 			"/>
		</g>
		<g>
			<g>
				<path class="st19" d="M175.15,1105.49h-0.76c-1.17-1.73-3.59-3.02-6.49-3.36v-4.09c0-0.49-0.13-0.94-0.36-1.29
					c0.2,0,0.36-0.21,0.36-0.47c0-0.15-0.06-0.28-0.14-0.37c0.08-0.08,0.14-0.22,0.14-0.37c0-0.21-0.11-0.39-0.26-0.45
					c0.16-0.32,0.26-0.71,0.26-1.12v-12.3c0-1.12-0.7-2.03-1.56-2.03c-0.86,0-1.56,0.91-1.56,2.03v12.3c0,0.41,0.1,0.8,0.26,1.12
					c-0.15,0.06-0.26,0.23-0.26,0.45c0,0.15,0.06,0.28,0.14,0.37c-0.09,0.08-0.14,0.22-0.14,0.37c0,0.26,0.16,0.47,0.36,0.47
					c-0.22,0.35-0.36,0.8-0.36,1.29v4.1c-2.88,0.35-5.28,1.63-6.45,3.35h-0.81c-0.23,0-0.41,0.18-0.41,0.41
					c0,0.23,0.18,0.41,0.41,0.41h0.36h1.3h0.64c0.23,0,0.41-0.18,0.41-0.41c0-0.23-0.18-0.41-0.41-0.41
					c1.33-1.36,3.76-2.27,6.54-2.27c2.78,0,5.21,0.91,6.54,2.27h-0.04c-0.23,0-0.41,0.18-0.41,0.41c0,0.23,0.18,0.41,0.41,0.41h0.68
					h1.3h0.31c0.23,0,0.41-0.18,0.41-0.41C175.56,1105.67,175.38,1105.49,175.15,1105.49z"/>
				<g>
					<polygon class="st20" points="187.27,1085.52 179.7,1087.16 179.7,1080.63 186.72,1080.63 					"/>
					<g>
						<polygon class="st21" points="178.35,1088.19 144.86,1084.38 144.86,1074.26 187.81,1074.26 187.81,1082.6 						"/>
						<g class="st22">
							<polygon class="st23" points="144.86,1074.26 144.86,1074.76 145.16,1074.26 							"/>
							<polygon class="st23" points="145.16,1074.26 144.86,1074.76 144.86,1077.78 147,1074.26 							"/>
							<polygon class="st23" points="150.7,1074.26 148.85,1074.26 144.86,1080.81 144.86,1082.41 145.49,1082.8 							"/>
							<polygon class="st23" points="148.18,1084.44 154.39,1074.26 152.54,1074.26 146.83,1083.62 							"/>
							<polygon class="st23" points="156.24,1074.26 149.73,1084.93 151.45,1085.13 158.09,1074.26 							"/>
							<polygon class="st23" points="159.93,1074.26 153.18,1085.32 154.91,1085.52 161.78,1074.26 							"/>
							<polygon class="st23" points="163.63,1074.26 156.63,1085.72 158.36,1085.91 165.47,1074.26 							"/>
							<polygon class="st23" points="167.32,1074.26 160.09,1086.11 161.82,1086.31 169.17,1074.26 							"/>
							<polygon class="st23" points="171.01,1074.26 163.54,1086.5 165.27,1086.7 172.86,1074.26 							"/>
							<polygon class="st23" points="174.71,1074.26 167,1086.89 168.72,1087.09 176.55,1074.26 							"/>
							<polygon class="st23" points="178.4,1074.26 170.45,1087.29 172.18,1087.48 180.25,1074.26 							"/>
							<polygon class="st23" points="182.09,1074.26 173.9,1087.68 175.63,1087.88 183.94,1074.26 							"/>
							<polygon class="st23" points="185.79,1074.26 177.36,1088.07 178.35,1088.19 179.58,1087.47 187.63,1074.26 							"/>
							<polygon class="st23" points="187.81,1077 182.46,1085.76 185.35,1084.06 187.81,1080.02 							"/>
						</g>
						<g class="st24">
							<polygon class="st25" points="144.86,1084.38 146.02,1084.51 144.86,1083.8 							"/>
							<polygon class="st25" points="187.81,1074.26 186.72,1074.26 187.81,1074.93 							"/>
							<polygon class="st25" points="186.72,1074.26 183.7,1074.26 187.81,1076.77 187.81,1074.93 							"/>
							<polygon class="st25" points="177.65,1074.26 187.81,1080.47 187.81,1078.62 180.67,1074.26 							"/>
							<polygon class="st25" points="171.6,1074.26 186.52,1083.37 187.81,1082.6 187.81,1082.31 174.62,1074.26 							"/>
							<polygon class="st25" points="165.54,1074.26 183.44,1085.18 184.98,1084.28 168.57,1074.26 							"/>
							<polygon class="st25" points="159.49,1074.26 180.36,1087 181.9,1086.09 162.52,1074.26 							"/>
							<polygon class="st25" points="153.44,1074.26 175.77,1087.89 178.35,1088.19 178.83,1087.91 156.46,1074.26 							"/>
							<polygon class="st25" points="147.39,1074.26 168.34,1087.05 172.06,1087.47 150.41,1074.26 							"/>
							<polygon class="st25" points="144.86,1076.41 160.9,1086.2 164.62,1086.62 144.86,1074.56 							"/>
							<polygon class="st25" points="144.86,1080.1 153.46,1085.36 157.18,1085.78 144.86,1078.26 							"/>
							<polygon class="st25" points="144.86,1083.8 146.02,1084.51 149.74,1084.93 144.86,1081.95 							"/>
						</g>
						<polygon class="st26" points="144.86,1081.41 144.86,1084.38 178.35,1088.19 187.81,1082.6 187.81,1079.64 178.35,1085.22 
													"/>
						<polygon class="st26" points="144.86,1080.1 144.86,1080.75 178.35,1084.56 187.81,1078.98 187.81,1078.33 178.35,1083.91 
													"/>
					</g>
				</g>
			</g>
			<g>
				<polygon class="st19" points="168.8,1074.26 167.28,1074.26 167.28,1071.15 				"/>
				<rect x="163.11" y="1069.78" class="st9" width="4.48" height="4.48"/>
				<rect x="163.41" y="1070.09" class="st1" width="3.87" height="3.87"/>
				<g>
					<path class="st9" d="M164.6,1070.92h0.67c0.31,0,0.54,0.05,0.67,0.14c0.14,0.09,0.21,0.23,0.21,0.43c0,0.13-0.03,0.24-0.1,0.33
						c-0.07,0.09-0.17,0.14-0.29,0.17v0.01c0.16,0.03,0.27,0.09,0.35,0.18c0.07,0.09,0.11,0.21,0.11,0.36c0,0.2-0.07,0.36-0.21,0.48
						c-0.14,0.11-0.34,0.17-0.59,0.17h-0.82V1070.92z M164.97,1071.86h0.36c0.15,0,0.27-0.02,0.34-0.07
						c0.07-0.05,0.11-0.13,0.11-0.25c0-0.11-0.04-0.18-0.11-0.23c-0.08-0.05-0.2-0.07-0.37-0.07h-0.32V1071.86z M164.97,1072.16
						v0.71h0.39c0.15,0,0.27-0.03,0.35-0.09c0.08-0.06,0.12-0.15,0.12-0.28c0-0.12-0.04-0.2-0.12-0.26
						c-0.08-0.06-0.2-0.08-0.37-0.08H164.97z"/>
				</g>
				<polygon class="st27" points="163.11,1069.78 167.59,1069.78 167.59,1074.26 				"/>
			</g>
		</g>
		<g>
			<path class="st1" d="M271.31,1074.36c-0.3-0.69-0.06-2.14-0.06-2.14h-3.71c0,0,1.65,0,0.83,2.14c-0.27,0.7-1.32,3.54,0.05,5.57
				c0.94,0,1.91,0,2.84,0C272.63,1077.9,271.62,1075.05,271.31,1074.36z"/>
			<path class="st1" d="M271.25,1072.03h-0.06c-0.16-0.16-0.54-0.28-1-0.31c-0.01-0.08-0.13-0.15-0.28-0.15
				c-0.14,0-0.25,0.06-0.27,0.14c-0.5,0.03-0.91,0.15-1.08,0.32h-0.06c-0.08,0-0.15,0.07-0.15,0.15c0,0.08,0.07,0.15,0.15,0.15h0.02
				c0.16,0.21,0.7,0.37,1.36,0.37c0.66,0,1.2-0.16,1.36-0.37h0.02c0.08,0,0.15-0.07,0.15-0.15
				C271.4,1072.1,271.33,1072.03,271.25,1072.03z"/>
			<g>
				<path class="st1" d="M271.25,1077.46c-0.63-1.04,0.39-1.86,0.97-2.69c0.58-0.84,1.04-1.26,0.52-1.65
					c-0.27-0.21-1.31,0.08-1.9,0.32l-0.08-0.2c0.17-0.07,1.66-0.64,2.11-0.29c0.7,0.54,0.19,1.28-0.36,2.06
					c-0.57,0.83-1.23,1.76-0.67,2.68L271.25,1077.46z"/>
			</g>
			<g class="st8">
				<path d="M271.31,1074.36c-0.25-0.57-0.13-1.68-0.08-2.03h0.01c0.08,0,0.15-0.07,0.15-0.15c0-0.08-0.07-0.15-0.15-0.15h-0.06
					c-0.15-0.15-0.49-0.26-0.91-0.3c-0.04,0.55-0.06,1.37,0.12,1.86c0.3,0.78,1.32,4.03-0.05,6.34c0.31,0,0.61,0,0.91,0
					C272.63,1077.9,271.62,1075.05,271.31,1074.36z"/>
				<path d="M267.68,1072.23c0,0,0-0.01,0-0.01h-0.13C267.54,1072.22,267.6,1072.22,267.68,1072.23z"/>
			</g>
		</g>
		<g>
			<path class="st1" d="M277.95,1079.35c0.19,0.04,0.41,0.01,0.62-0.08c0.46-0.2,0.7-0.66,0.54-1.01c-0.11-0.27-0.42-0.4-0.76-0.37
				c0-0.04-0.01-0.09-0.01-0.13h-4.11c-0.02,0.11-0.02,0.22-0.02,0.34c0,0.92,0.53,1.67,1.19,1.67h-1.56v0.17h4.93v-0.17h-1.6
				C277.46,1079.76,277.74,1079.6,277.95,1079.35z M278.95,1078.32c0.13,0.29-0.07,0.65-0.44,0.82c-0.16,0.07-0.32,0.09-0.46,0.07
				c0.19-0.3,0.31-0.69,0.31-1.13c0-0.02,0-0.04,0-0.06C278.62,1078.01,278.86,1078.11,278.95,1078.32z"/>
			<g>
				<path class="st1" d="M276.05,1076.95c0,0-0.38-0.87,0.1-1.28c0.2-0.18,0.06-0.65,0-1.02
					C276.32,1075.53,275.32,1075.61,276.05,1076.95z"/>
				<path class="st1" d="M276.24,1077.37c0,0,0.26-0.32-0.1-0.63c-0.15-0.13-0.05-0.49,0-0.77
					C276.02,1076.65,276.78,1076.36,276.24,1077.37z"/>
			</g>
			<path class="st8" d="M277.95,1079.35c0.19,0.04,0.41,0.01,0.62-0.08c0.46-0.2,0.7-0.66,0.54-1.01c-0.11-0.27-0.42-0.4-0.76-0.37
				c0-0.04-0.01-0.09-0.01-0.13h-1.49c0.04,0.43,0.1,1.76-0.44,2.18h2.36v-0.17h-1.6C277.46,1079.76,277.74,1079.6,277.95,1079.35z
				 M278.36,1078.08c0-0.02,0-0.04,0-0.06c0.26-0.02,0.5,0.09,0.59,0.3c0.13,0.29-0.07,0.65-0.44,0.82
				c-0.16,0.07-0.32,0.09-0.46,0.07C278.24,1078.91,278.36,1078.52,278.36,1078.08z"/>
		</g>
		<g>
			<path class="st1" d="M253.44,1079.76h-1.6v0.17h4.93v-0.17h-1.57c0.66,0,1.2-0.75,1.2-1.67c0-0.12-0.01-0.23-0.02-0.34h-4.11
				c-0.01,0.04-0.01,0.09-0.01,0.13c-0.34-0.03-0.64,0.1-0.76,0.37c-0.15,0.36,0.09,0.81,0.54,1.01c0.21,0.09,0.43,0.12,0.62,0.08
				C252.87,1079.6,253.14,1079.76,253.44,1079.76z M252.24,1078.03c0,0.02,0,0.04,0,0.06c0,0.43,0.12,0.83,0.31,1.13
				c-0.14,0.02-0.31,0-0.46-0.07c-0.37-0.16-0.56-0.53-0.44-0.82C251.74,1078.11,251.98,1078.01,252.24,1078.03z"/>
			<g>
				<path class="st1" d="M254.55,1076.95c0,0,0.38-0.87-0.1-1.28c-0.2-0.18-0.06-0.65-0.01-1.02
					C254.28,1075.53,255.28,1075.61,254.55,1076.95z"/>
				<path class="st1" d="M254.36,1077.37c0,0-0.26-0.32,0.1-0.63c0.15-0.13,0.05-0.49,0-0.77
					C254.58,1076.65,253.82,1076.36,254.36,1077.37z"/>
			</g>
			<path class="st8" d="M256.77,1079.76h-1.57c0.66,0,1.2-0.75,1.2-1.67c0-0.12-0.01-0.23-0.02-0.34h-1.51
				c0.01,0.56-0.09,1.49-0.8,2.18h2.7V1079.76z"/>
		</g>
		<g>
			<path class="st19" d="M137.76,1105.3v-14.95c0-0.9-0.73-1.63-1.63-1.63h-8.43c-0.9,0-1.63,0.73-1.63,1.63v14.95h-0.65v-14.95
				c0-1.26,1.02-2.28,2.28-2.28h8.43c1.26,0,2.28,1.02,2.28,2.28v14.95H137.76z"/>
			<path class="st19" d="M140.96,1105.3v-14.95c0-0.9-0.73-1.63-1.63-1.63h-8.43c-0.9,0-1.63,0.73-1.63,1.63v14.95h-0.65v-14.95
				c0-1.26,1.02-2.28,2.28-2.28h8.43c1.26,0,2.28,1.02,2.28,2.28v14.95H140.96z"/>
			<path class="st19" d="M132.57,1086.54v-15.12c0-0.93-0.92-1.68-2.05-1.68h-1.72c-1.13,0-2.05,0.75-2.05,1.68v15.12h-0.82v-15.12
				c0-1.3,1.29-2.36,2.87-2.36h1.72c1.58,0,2.87,1.06,2.87,2.36v15.12H132.57z"/>
			<rect x="138.42" y="1101.01" class="st19" width="2.55" height="0.61"/>
			<rect x="126.08" y="1101.01" class="st19" width="2.55" height="0.61"/>
			<path class="st19" d="M130.92,1086.32v-15.09c0-0.69-0.56-1.26-1.26-1.26c-0.69,0-1.26,0.57-1.26,1.26v15.09h-0.65v-15.09
				c0-1.05,0.86-1.91,1.91-1.91c1.05,0,1.91,0.86,1.91,1.91v15.09H130.92z"/>
			<path class="st9" d="M128.08,1086.32v-15.09c0-0.88,0.71-1.58,1.59-1.58c0.88,0,1.59,0.71,1.59,1.58v15.09H128.08z"/>
			<path class="st28" d="M125.16,1087.07c0,0.56,0.45,1.01,1.01,1.01h14.44c0.56,0,1.01-0.45,1.01-1.01l0,0
				c0-0.56-0.45-1.01-1.01-1.01h-14.44C125.61,1086.06,125.16,1086.51,125.16,1087.07L125.16,1087.07z"/>
		</g>
		<g>
			<path class="st19" d="M194.81,1105.3v-14.95c0-0.9,0.73-1.63,1.63-1.63h8.43c0.9,0,1.63,0.73,1.63,1.63v14.95h0.65v-14.95
				c0-1.26-1.02-2.28-2.28-2.28h-8.43c-1.26,0-2.28,1.02-2.28,2.28v14.95H194.81z"/>
			<path class="st19" d="M191.61,1105.3v-14.95c0-0.9,0.73-1.63,1.63-1.63h8.43c0.9,0,1.63,0.73,1.63,1.63v14.95h0.65v-14.95
				c0-1.26-1.02-2.28-2.28-2.28h-8.43c-1.26,0-2.28,1.02-2.28,2.28v14.95H191.61z"/>
			<path class="st19" d="M200.01,1086.54v-15.12c0-0.93,0.92-1.68,2.05-1.68h1.72c1.13,0,2.05,0.75,2.05,1.68v15.12h0.82v-15.12
				c0-1.3-1.29-2.36-2.87-2.36h-1.72c-1.58,0-2.87,1.06-2.87,2.36v15.12H200.01z"/>
			<rect x="191.61" y="1101.01" class="st19" width="2.55" height="0.61"/>
			<rect x="203.95" y="1101.01" class="st19" width="2.55" height="0.61"/>
			<path class="st19" d="M201.65,1086.32v-15.09c0-0.69,0.56-1.26,1.26-1.26c0.69,0,1.26,0.57,1.26,1.26v15.09h0.65v-15.09
				c0-1.05-0.86-1.91-1.91-1.91c-1.05,0-1.91,0.86-1.91,1.91v15.09H201.65z"/>
			<path class="st9" d="M204.5,1086.32v-15.09c0-0.88-0.71-1.58-1.59-1.58c-0.88,0-1.59,0.71-1.59,1.58v15.09H204.5z"/>
			<path class="st28" d="M207.41,1087.07c0,0.56-0.45,1.01-1.01,1.01h-14.44c-0.56,0-1.01-0.45-1.01-1.01l0,0
				c0-0.56,0.45-1.01,1.01-1.01h14.44C206.96,1086.06,207.41,1086.51,207.41,1087.07L207.41,1087.07z"/>
		</g>
		<g>
			<g>
				<path class="st19" d="M269.28,1105.49h-0.76c-1.17-1.73-3.59-3.02-6.49-3.36v-4.09c0-0.49-0.13-0.94-0.36-1.29
					c0.2,0,0.36-0.21,0.36-0.47c0-0.15-0.06-0.28-0.14-0.37c0.08-0.08,0.14-0.22,0.14-0.37c0-0.21-0.11-0.39-0.26-0.45
					c0.16-0.32,0.26-0.71,0.26-1.12v-12.3c0-1.12-0.7-2.03-1.56-2.03c-0.86,0-1.57,0.91-1.57,2.03v12.3c0,0.41,0.1,0.8,0.26,1.12
					c-0.15,0.06-0.26,0.23-0.26,0.45c0,0.15,0.06,0.28,0.14,0.37c-0.09,0.08-0.14,0.22-0.14,0.37c0,0.26,0.16,0.47,0.36,0.47
					c-0.22,0.35-0.36,0.8-0.36,1.29v4.1c-2.88,0.35-5.28,1.63-6.45,3.35h-0.81c-0.23,0-0.41,0.18-0.41,0.41
					c0,0.23,0.18,0.41,0.41,0.41H252h1.3h0.64c0.23,0,0.41-0.18,0.41-0.41c0-0.23-0.18-0.41-0.41-0.41
					c1.33-1.36,3.76-2.27,6.54-2.27c2.78,0,5.21,0.91,6.54,2.27h-0.04c-0.23,0-0.41,0.18-0.41,0.41c0,0.23,0.18,0.41,0.41,0.41h0.68
					h1.3h0.32c0.23,0,0.41-0.18,0.41-0.41C269.69,1105.67,269.5,1105.49,269.28,1105.49z"/>
				<g>
					<polygon class="st20" points="281.39,1085.52 273.83,1087.16 273.83,1080.63 280.85,1080.63 					"/>
					<g>
						<polygon class="st21" points="272.48,1088.19 238.98,1084.38 238.98,1074.26 281.94,1074.26 281.94,1082.6 						"/>
						<g class="st22">
							<polygon class="st23" points="238.98,1074.26 238.98,1074.76 239.28,1074.26 							"/>
							<polygon class="st23" points="239.28,1074.26 238.98,1074.76 238.98,1077.78 241.13,1074.26 							"/>
							<polygon class="st23" points="244.82,1074.26 242.98,1074.26 238.98,1080.81 238.98,1082.41 239.61,1082.8 							"/>
							<polygon class="st23" points="242.3,1084.44 248.52,1074.26 246.67,1074.26 240.96,1083.62 							"/>
							<polygon class="st23" points="250.36,1074.26 243.85,1084.93 245.58,1085.13 252.21,1074.26 							"/>
							<polygon class="st23" points="254.06,1074.26 247.31,1085.32 249.03,1085.52 255.9,1074.26 							"/>
							<polygon class="st23" points="257.75,1074.26 250.76,1085.72 252.49,1085.91 259.6,1074.26 							"/>
							<polygon class="st23" points="261.44,1074.26 254.21,1086.11 255.94,1086.31 263.29,1074.26 							"/>
							<polygon class="st23" points="265.14,1074.26 257.67,1086.5 259.39,1086.7 266.98,1074.26 							"/>
							<polygon class="st23" points="268.83,1074.26 261.12,1086.89 262.85,1087.09 270.68,1074.26 							"/>
							<polygon class="st23" points="272.52,1074.26 264.57,1087.29 266.3,1087.48 274.37,1074.26 							"/>
							<polygon class="st23" points="276.22,1074.26 268.03,1087.68 269.76,1087.88 278.07,1074.26 							"/>
							<polygon class="st23" points="279.91,1074.26 271.48,1088.07 272.48,1088.19 273.7,1087.47 281.76,1074.26 							"/>
							<polygon class="st23" points="281.94,1077 276.59,1085.76 279.47,1084.06 281.94,1080.02 							"/>
						</g>
						<g class="st24">
							<polygon class="st25" points="238.98,1084.38 240.15,1084.51 238.98,1083.8 							"/>
							<polygon class="st25" points="281.94,1074.26 280.85,1074.26 281.94,1074.93 							"/>
							<polygon class="st25" points="280.85,1074.26 277.82,1074.26 281.94,1076.77 281.94,1074.93 							"/>
							<polygon class="st25" points="271.77,1074.26 281.94,1080.47 281.94,1078.62 274.8,1074.26 							"/>
							<polygon class="st25" points="265.72,1074.26 280.64,1083.37 281.94,1082.6 281.94,1082.31 268.75,1074.26 							"/>
							<polygon class="st25" points="259.67,1074.26 277.56,1085.18 279.1,1084.28 262.69,1074.26 							"/>
							<polygon class="st25" points="253.62,1074.26 274.49,1087 276.03,1086.09 256.64,1074.26 							"/>
							<polygon class="st25" points="247.56,1074.26 269.9,1087.89 272.48,1088.19 272.95,1087.91 250.59,1074.26 							"/>
							<polygon class="st25" points="241.51,1074.26 262.46,1087.05 266.18,1087.47 244.54,1074.26 							"/>
							<polygon class="st25" points="238.98,1076.41 255.02,1086.2 258.74,1086.62 238.98,1074.56 							"/>
							<polygon class="st25" points="238.98,1080.1 247.58,1085.36 251.3,1085.78 238.98,1078.26 							"/>
							<polygon class="st25" points="238.98,1083.8 240.15,1084.51 243.87,1084.93 238.98,1081.95 							"/>
						</g>
						<polygon class="st26" points="238.98,1081.41 238.98,1084.38 272.48,1088.19 281.94,1082.6 281.94,1079.64 272.48,1085.22 
													"/>
						<polygon class="st26" points="238.98,1080.1 238.98,1080.75 272.48,1084.56 281.94,1078.98 281.94,1078.33 272.48,1083.91 
													"/>
					</g>
				</g>
			</g>
			<g>
				<polygon class="st19" points="262.93,1074.26 261.4,1074.26 261.4,1071.15 				"/>
				<rect x="257.23" y="1069.78" class="st9" width="4.48" height="4.48"/>
				<rect x="257.54" y="1070.09" class="st1" width="3.87" height="3.87"/>
				<g>
					<path class="st9" d="M260.28,1073.18h-1.61v-0.26l1.14-1.68h-1.11v-0.32h1.55v0.26l-1.14,1.68h1.17V1073.18z"/>
				</g>
				<polygon class="st27" points="257.23,1069.78 261.71,1069.78 261.71,1074.26 				"/>
			</g>
		</g>
		<g>
			<path class="st19" d="M231.89,1105.3v-14.95c0-0.9-0.73-1.63-1.63-1.63h-8.43c-0.9,0-1.63,0.73-1.63,1.63v14.95h-0.65v-14.95
				c0-1.26,1.02-2.28,2.28-2.28h8.43c1.26,0,2.28,1.02,2.28,2.28v14.95H231.89z"/>
			<path class="st19" d="M235.09,1105.3v-14.95c0-0.9-0.73-1.63-1.63-1.63h-8.43c-0.9,0-1.63,0.73-1.63,1.63v14.95h-0.65v-14.95
				c0-1.26,1.02-2.28,2.28-2.28h8.43c1.26,0,2.28,1.02,2.28,2.28v14.95H235.09z"/>
			<path class="st19" d="M226.69,1086.54v-15.12c0-0.93-0.92-1.68-2.05-1.68h-1.72c-1.13,0-2.05,0.75-2.05,1.68v15.12h-0.82v-15.12
				c0-1.3,1.29-2.36,2.87-2.36h1.72c1.58,0,2.87,1.06,2.87,2.36v15.12H226.69z"/>
			<rect x="232.54" y="1101.01" class="st19" width="2.55" height="0.61"/>
			<rect x="220.2" y="1101.01" class="st19" width="2.55" height="0.61"/>
			<path class="st19" d="M225.05,1086.32v-15.09c0-0.69-0.56-1.26-1.26-1.26c-0.69,0-1.26,0.57-1.26,1.26v15.09h-0.65v-15.09
				c0-1.05,0.86-1.91,1.91-1.91c1.05,0,1.91,0.86,1.91,1.91v15.09H225.05z"/>
			<path class="st9" d="M222.2,1086.32v-15.09c0-0.88,0.71-1.58,1.59-1.58c0.88,0,1.59,0.71,1.59,1.58v15.09H222.2z"/>
			<path class="st28" d="M219.29,1087.07c0,0.56,0.45,1.01,1.01,1.01h14.44c0.56,0,1.01-0.45,1.01-1.01l0,0
				c0-0.56-0.45-1.01-1.01-1.01h-14.44C219.74,1086.06,219.29,1086.51,219.29,1087.07L219.29,1087.07z"/>
		</g>
		<g>
			<path class="st19" d="M288.94,1105.3v-14.95c0-0.9,0.73-1.63,1.63-1.63H299c0.9,0,1.63,0.73,1.63,1.63v14.95h0.65v-14.95
				c0-1.26-1.02-2.28-2.28-2.28h-8.43c-1.26,0-2.28,1.02-2.28,2.28v14.95H288.94z"/>
			<path class="st19" d="M285.74,1105.3v-14.95c0-0.9,0.73-1.63,1.63-1.63h8.43c0.9,0,1.63,0.73,1.63,1.63v14.95h0.65v-14.95
				c0-1.26-1.02-2.28-2.28-2.28h-8.43c-1.26,0-2.28,1.02-2.28,2.28v14.95H285.74z"/>
			<path class="st19" d="M294.13,1086.54v-15.12c0-0.93,0.92-1.68,2.05-1.68h1.72c1.13,0,2.05,0.75,2.05,1.68v15.12h0.82v-15.12
				c0-1.3-1.29-2.36-2.87-2.36h-1.72c-1.58,0-2.87,1.06-2.87,2.36v15.12H294.13z"/>
			<rect x="285.74" y="1101.01" class="st19" width="2.55" height="0.61"/>
			<rect x="298.07" y="1101.01" class="st19" width="2.55" height="0.61"/>
			<path class="st19" d="M295.78,1086.32v-15.09c0-0.69,0.57-1.26,1.26-1.26c0.69,0,1.26,0.57,1.26,1.26v15.09h0.65v-15.09
				c0-1.05-0.86-1.91-1.91-1.91c-1.05,0-1.91,0.86-1.91,1.91v15.09H295.78z"/>
			<path class="st9" d="M298.62,1086.32v-15.09c0-0.88-0.71-1.58-1.58-1.58c-0.88,0-1.59,0.71-1.59,1.58v15.09H298.62z"/>
			<path class="st28" d="M301.54,1087.07c0,0.56-0.45,1.01-1.01,1.01h-14.44c-0.56,0-1.01-0.45-1.01-1.01l0,0
				c0-0.56,0.45-1.01,1.01-1.01h14.44C301.09,1086.06,301.54,1086.51,301.54,1087.07L301.54,1087.07z"/>
		</g>
	</g>
	<g>
		<rect x="445.67" y="1017.25" class="st29" width="140.43" height="88.37"/>
		<g>
			<path class="st8" d="M586.1,1014.51h-11.2h-11.2h-11.2h-11.2h-11.2h-11.2h-11.2h-11.2h-11.2h-11.2h-11.2h-11.2h-5.85v16.31
				c0.08,0,0.16,0,0.25,0c3.09,0,5.6-1.45,5.6-3.24c0,1.79,2.51,3.24,5.6,3.24c3.09,0,5.6-1.45,5.6-3.24c0,1.79,2.51,3.24,5.6,3.24
				c3.09,0,5.6-1.45,5.6-3.24c0,1.79,2.51,3.24,5.6,3.24c3.09,0,5.6-1.45,5.6-3.24c0,1.79,2.51,3.24,5.6,3.24
				c3.09,0,5.6-1.45,5.6-3.24c0,1.79,2.51,3.24,5.6,3.24c3.09,0,5.6-1.45,5.6-3.24c0,1.79,2.51,3.24,5.6,3.24
				c3.09,0,5.6-1.45,5.6-3.24c0,1.79,2.51,3.24,5.6,3.24c3.09,0,5.6-1.45,5.6-3.24c0,1.79,2.51,3.24,5.6,3.24
				c3.09,0,5.6-1.45,5.6-3.24c0,1.79,2.51,3.24,5.6,3.24s5.6-1.45,5.6-3.24c0,1.79,2.51,3.24,5.6,3.24c3.09,0,5.6-1.45,5.6-3.24
				c0,1.79,2.51,3.24,5.6,3.24c3.09,0,5.6-1.45,5.6-3.24c0,1.79,2.51,3.24,5.6,3.24c3.09,0,5.6-1.45,5.6-3.24V1014.51z"/>
			<g>
				<path class="st30" d="M440.52,1000.62v22.41c0,3.07,2.51,5.55,5.6,5.55c3.09,0,5.6-2.49,5.6-5.55v-22.41H440.52z"/>
				<path class="st10" d="M451.72,1000.62v22.41c0,3.07,2.51,5.55,5.6,5.55c3.09,0,5.6-2.49,5.6-5.55v-22.41H451.72z"/>
				<path class="st30" d="M462.92,1000.62v22.41c0,3.07,2.51,5.55,5.6,5.55c3.09,0,5.6-2.49,5.6-5.55v-22.41H462.92z"/>
				<path class="st10" d="M474.12,1000.62v22.41c0,3.07,2.51,5.55,5.6,5.55c3.09,0,5.6-2.49,5.6-5.55v-22.41H474.12z"/>
				<path class="st30" d="M485.32,1000.62v22.41c0,3.07,2.51,5.55,5.6,5.55c3.09,0,5.6-2.49,5.6-5.55v-22.41H485.32z"/>
				<path class="st10" d="M496.51,1000.62v22.41c0,3.07,2.51,5.55,5.6,5.55c3.09,0,5.6-2.49,5.6-5.55v-22.41H496.51z"/>
				<path class="st30" d="M507.71,1000.62v22.41c0,3.07,2.51,5.55,5.6,5.55c3.09,0,5.6-2.49,5.6-5.55v-22.41H507.71z"/>
				<path class="st10" d="M518.91,1000.62v22.41c0,3.07,2.51,5.55,5.6,5.55c3.09,0,5.6-2.49,5.6-5.55v-22.41H518.91z"/>
				<path class="st30" d="M530.11,1000.62v22.41c0,3.07,2.51,5.55,5.6,5.55c3.09,0,5.6-2.49,5.6-5.55v-22.41H530.11z"/>
				<path class="st10" d="M541.31,1000.62v22.41c0,3.07,2.51,5.55,5.6,5.55s5.6-2.49,5.6-5.55v-22.41H541.31z"/>
				<path class="st30" d="M552.51,1000.62v22.41c0,3.07,2.51,5.55,5.6,5.55c3.09,0,5.6-2.49,5.6-5.55v-22.41H552.51z"/>
				<path class="st10" d="M563.71,1000.62v22.41c0,3.07,2.51,5.55,5.6,5.55c3.09,0,5.6-2.49,5.6-5.55v-22.41H563.71z"/>
				<path class="st30" d="M574.91,1000.62v22.41c0,3.07,2.51,5.55,5.6,5.55c3.09,0,5.6-2.49,5.6-5.55v-22.41H574.91z"/>
			</g>
		</g>
		<g>
			<rect x="457.32" y="1038.44" class="st30" width="28" height="67.01"/>
			<rect x="458.7" y="1040.07" class="st15" width="25.46" height="31.08"/>
			<rect x="458.7" y="1072.94" class="st15" width="25.46" height="31.08"/>
			<polygon class="st16" points="457.32,1065.19 457.32,1038.44 485.32,1038.44 			"/>
		</g>
		<g>
			<rect x="491.86" y="1038.55" class="st30" width="76.49" height="46.54"/>
			<rect x="492.77" y="1040.48" class="st15" width="74.09" height="42.63"/>
			<g>
				<path class="st30" d="M530.61,1076.09c-8.74,0-15.85-7.11-15.85-15.85c0-8.74,7.11-15.85,15.85-15.85
					c8.74,0,15.85,7.11,15.85,15.85C546.47,1068.98,539.36,1076.09,530.61,1076.09z M530.61,1044.72c-8.56,0-15.52,6.96-15.52,15.52
					s6.96,15.52,15.52,15.52c8.56,0,15.52-6.96,15.52-15.52S539.17,1044.72,530.61,1044.72z"/>
			</g>
			<path class="st30" d="M544.47,1060.24c0,7.66-6.21,13.86-13.86,13.86c-7.66,0-13.86-6.21-13.86-13.86s6.21-13.86,13.86-13.86
				C538.27,1046.38,544.47,1052.59,544.47,1060.24z"/>
			<polygon class="st18" points="509.25,1083.12 566.87,1047.54 566.87,1044 503.51,1083.12 			"/>
			<polygon class="st18" points="555.29,1083.12 566.87,1075.97 566.87,1072.43 549.55,1083.12 			"/>
			<g>
				<path class="st31" d="M526.11,1062.51l-1.17,2.54c-0.09,1.21-0.24,2.16-0.47,2.84c-0.22,0.68-0.44,1.08-0.66,1.19
					c-0.12,0.06-0.21,0.01-0.28-0.13c-0.14-0.28-0.17-0.71-0.1-1.29c0.03-0.23,0.08-0.46,0.14-0.69c0.07-0.24,0.14-0.45,0.21-0.63
					c0.07-0.18,0.17-0.42,0.3-0.7c0.13-0.28,0.21-0.47,0.26-0.58c0-0.99-0.01-1.73-0.04-2.24c-0.18,0.57-0.34,1.04-0.49,1.43
					c-0.15,0.38-0.31,0.7-0.47,0.94c-0.16,0.25-0.34,0.41-0.52,0.5c-0.2,0.1-0.46,0.03-0.78-0.21c-0.32-0.24-0.57-0.52-0.73-0.86
					c-0.08-0.16-0.12-0.34-0.13-0.54c-0.01-0.21,0.01-0.45,0.07-0.72c0.06-0.27,0.16-0.57,0.3-0.89c0.14-0.32,0.32-0.66,0.55-1.01
					c0.42-0.67,0.8-1.09,1.14-1.25c0.25-0.12,0.42-0.09,0.51,0.09c0.12,0.25-0.03,0.63-0.45,1.14c-0.26,0.31-0.5,0.66-0.71,1.05
					c-0.21,0.4-0.35,0.78-0.42,1.14s-0.06,0.66,0.05,0.87c0.05,0.11,0.12,0.18,0.2,0.22c0.08,0.04,0.16,0.04,0.25,0
					c0.14-0.07,0.26-0.2,0.38-0.41c0.12-0.21,0.27-0.56,0.46-1.04c0.09-0.22,0.18-0.55,0.28-1s0.2-0.8,0.29-1.05
					c0.09-0.25,0.2-0.41,0.34-0.48c0.08-0.04,0.15-0.04,0.23-0.02c0.07,0.03,0.13,0.08,0.18,0.18c0.09,0.18,0.14,0.48,0.16,0.89
					c0.02,0.41,0.04,1.09,0.04,2.05l0.92-1.72L526.11,1062.51z"/>
				<path class="st31" d="M525.88,1062.69l-0.19-0.38c0.09-0.35,0.15-0.64,0.17-0.87c-0.15,0.02-0.26,0.01-0.35-0.03
					c-0.09-0.04-0.16-0.12-0.22-0.24c-0.07-0.14-0.1-0.35-0.08-0.62c0.01-0.27,0.06-0.54,0.14-0.81c0.08-0.27,0.18-0.47,0.29-0.59
					c0.04-0.05,0.09-0.09,0.14-0.12c0.08-0.04,0.14-0.02,0.17,0.05c0.03,0.07,0.04,0.23,0.01,0.49c0.74-0.51,1.22-0.82,1.43-0.93
					c0.08-0.04,0.14-0.06,0.18-0.06c0.08,0,0.18,0.06,0.28,0.17c0.11,0.11,0.19,0.23,0.25,0.36c0.04,0.08,0.05,0.19,0.02,0.32
					c-0.03,0.13-0.08,0.33-0.17,0.6c-0.1,0.32-0.16,0.65-0.17,0.98c-0.01,0.33,0.01,0.56,0.08,0.69c0.09,0.18,0.25,0.22,0.47,0.11
					c0.24-0.12,0.54-0.56,0.89-1.33l0.19,0.39c-0.16,0.5-0.3,0.9-0.41,1.19c-0.12,0.3-0.24,0.55-0.36,0.75
					c-0.12,0.2-0.25,0.34-0.4,0.41c-0.16,0.08-0.34,0.07-0.52-0.03c-0.18-0.1-0.34-0.29-0.48-0.57c-0.08-0.17-0.13-0.38-0.15-0.64
					c-0.02-0.26-0.01-0.55,0.04-0.88c0.04-0.33,0.11-0.67,0.19-1.03c-0.1,0.08-0.21,0.16-0.33,0.25c-0.12,0.09-0.26,0.19-0.4,0.29
					c-0.14,0.1-0.25,0.18-0.32,0.24C526.29,1061.46,526.15,1062.07,525.88,1062.69z"/>
				<path class="st31" d="M530.27,1060.27l0.07,0.15c0.11,0.23,0.26,0.38,0.43,0.46c0.18,0.07,0.36,0.07,0.54-0.02
					c0.19-0.09,0.37-0.23,0.53-0.42c0.16-0.19,0.31-0.41,0.44-0.65c0.13-0.25,0.28-0.57,0.46-0.96l0.17,0.36
					c-0.18,0.75-0.4,1.35-0.65,1.82c-0.25,0.47-0.57,0.8-0.97,1c-0.35,0.17-0.69,0.17-1.02,0c-0.33-0.17-0.61-0.49-0.84-0.96
					c-0.2-0.41-0.28-0.83-0.25-1.26c0.03-0.43,0.17-0.93,0.42-1.51c0.17-0.4,0.38-0.73,0.61-1c0.23-0.27,0.46-0.46,0.69-0.57
					c0.18-0.09,0.35-0.12,0.5-0.09c0.15,0.03,0.26,0.13,0.34,0.3c0.12,0.25,0.15,0.54,0.08,0.87c-0.06,0.33-0.23,0.71-0.49,1.13
					C531.06,1059.32,530.71,1059.78,530.27,1060.27z M530.14,1059.86c0.28-0.31,0.5-0.62,0.65-0.95c0.15-0.32,0.24-0.61,0.27-0.85
					s0.02-0.41-0.02-0.49c-0.04-0.09-0.11-0.12-0.19-0.08c-0.07,0.03-0.16,0.13-0.28,0.3c-0.11,0.17-0.22,0.36-0.31,0.58
					s-0.16,0.46-0.19,0.72C530.05,1059.35,530.07,1059.61,530.14,1059.86z"/>
				<path class="st31" d="M533.77,1058.57l0.07,0.15c0.11,0.23,0.25,0.38,0.43,0.46c0.17,0.07,0.36,0.07,0.54-0.02
					c0.19-0.09,0.37-0.23,0.53-0.42c0.16-0.19,0.31-0.41,0.44-0.65c0.13-0.25,0.28-0.57,0.45-0.96l0.17,0.36
					c-0.18,0.75-0.4,1.35-0.65,1.82c-0.25,0.47-0.57,0.8-0.97,1c-0.35,0.17-0.69,0.17-1.02,0c-0.33-0.17-0.61-0.49-0.84-0.96
					c-0.2-0.41-0.28-0.83-0.25-1.25s0.17-0.93,0.42-1.51c0.17-0.4,0.38-0.73,0.61-1c0.23-0.27,0.46-0.46,0.69-0.57
					c0.18-0.09,0.35-0.12,0.5-0.09c0.15,0.03,0.26,0.13,0.35,0.3c0.12,0.25,0.15,0.54,0.08,0.87c-0.06,0.33-0.23,0.71-0.49,1.13
					C534.57,1057.62,534.21,1058.08,533.77,1058.57z M533.65,1058.16c0.29-0.31,0.5-0.62,0.65-0.95c0.15-0.33,0.24-0.61,0.27-0.85
					c0.03-0.24,0.02-0.41-0.02-0.49c-0.04-0.09-0.11-0.12-0.19-0.08c-0.07,0.03-0.16,0.13-0.28,0.3c-0.12,0.17-0.22,0.36-0.31,0.58
					s-0.16,0.46-0.19,0.72C533.55,1057.65,533.57,1057.91,533.65,1058.16z"/>
				<path class="st31" d="M539.67,1054.13c-0.32,1.1-0.4,1.8-0.25,2.1c0.08,0.17,0.19,0.22,0.33,0.15c0.11-0.05,0.23-0.19,0.36-0.39
					c0.12-0.21,0.3-0.56,0.54-1.05l0.2,0.4c-0.29,0.82-0.52,1.42-0.7,1.8c-0.18,0.39-0.36,0.63-0.55,0.72
					c-0.32,0.16-0.58,0.02-0.79-0.4c-0.06-0.13-0.1-0.26-0.12-0.4c-0.02-0.14-0.03-0.29-0.02-0.46c0-0.16,0.02-0.4,0.04-0.71
					c0.02-0.31,0.05-0.67,0.08-1.07c-0.17,0.22-0.34,0.58-0.51,1.08c-0.12,0.32-0.2,0.61-0.27,0.87c-0.06,0.26-0.12,0.55-0.18,0.87
					c-0.06,0.32-0.11,0.53-0.15,0.65c-0.04,0.12-0.1,0.2-0.19,0.24c-0.13,0.06-0.3-0.01-0.54-0.23c-0.23-0.21-0.43-0.49-0.6-0.84
					c-0.1-0.21-0.16-0.39-0.17-0.54c-0.01-0.14,0-0.36,0.04-0.66c0.07-0.54,0.15-0.96,0.25-1.25c0.1-0.29,0.24-0.48,0.42-0.56
					c0.13-0.06,0.24-0.09,0.33-0.08c0.1,0.01,0.17,0.05,0.21,0.14c0.02,0.04,0.03,0.09,0.02,0.14c0,0.05-0.01,0.11-0.02,0.16
					c-0.01,0.05-0.04,0.15-0.09,0.29c-0.29,0.98-0.38,1.58-0.28,1.78c0.05,0.11,0.12,0.15,0.19,0.12c0.05-0.02,0.1-0.14,0.16-0.36
					c0.06-0.22,0.14-0.5,0.23-0.84c0.09-0.35,0.22-0.72,0.38-1.13c0.16-0.41,0.37-0.82,0.62-1.25c0.14-0.25,0.27-0.4,0.41-0.47
					c0.06-0.03,0.17,0.03,0.31,0.17c0.14,0.14,0.26,0.3,0.34,0.48C539.77,1053.71,539.75,1053.88,539.67,1054.13z"/>
			</g>
		</g>
	</g>
	<g>
		<g>
			<rect x="308.11" y="1034.79" class="st31" width="110.39" height="63.32"/>
			<path class="st32" d="M421.83,1102.72c0,1.53-1.24,2.77-2.77,2.77H306.82c-1.53,0-2.77-1.24-2.77-2.77v-1.85
				c0-1.53,1.24-2.77,2.77-2.77h112.24c1.53,0,2.77,1.24,2.77,2.77V1102.72z"/>
			<g>
				<rect x="379.37" y="1037.56" class="st33" width="30.27" height="60.55"/>
				<g>
					<rect x="383.24" y="1040.88" class="st15" width="22.52" height="25.57"/>
					<polygon class="st34" points="383.24,1066.45 383.24,1040.88 405.76,1040.88 					"/>
					<polygon class="st35" points="383.24,1040.88 383.24,1041.71 405.07,1041.71 405.07,1066.45 405.76,1066.45 405.76,1040.88 
											"/>
				</g>
				<g>
					<rect x="383.24" y="1069.77" class="st34" width="22.52" height="25.57"/>
					<polygon class="st15" points="405.76,1069.77 383.24,1069.77 383.24,1095.34 					"/>
					<polygon class="st35" points="383.24,1095.34 383.24,1094.51 405.07,1094.51 405.07,1069.77 405.76,1069.77 405.76,1095.34 
											"/>
				</g>
			</g>
			<path class="st36" d="M383.93,1067.83c0,1.15-0.93,2.07-2.07,2.07c-1.15,0-2.08-0.93-2.08-2.07c0-1.15,0.93-2.08,2.08-2.08
				C383,1065.76,383.93,1066.69,383.93,1067.83z"/>
			<path class="st1" d="M383.8,1067.83c0,1.07-0.87,1.94-1.94,1.94c-1.07,0-1.94-0.87-1.94-1.94c0-1.07,0.87-1.94,1.94-1.94
				C382.93,1065.9,383.8,1066.76,383.8,1067.83z"/>
			<path class="st37" d="M362.93,1076.14c0,0.97-0.87,1.75-1.93,1.75h-39.88c-1.07,0-1.93-0.79-1.93-1.75l0,0
				c0-0.97,0.87-1.75,1.93-1.75H361C362.07,1074.39,362.93,1075.17,362.93,1076.14L362.93,1076.14z"/>
			<g>
				<rect x="321.77" y="1039.59" class="st37" width="38.4" height="34.8"/>
				<g>
					<rect x="325.46" y="1042.27" class="st15" width="31.75" height="32.12"/>
					<polygon class="st38" points="325.46,1074.39 325.46,1042.27 357.21,1042.27 					"/>
					<polygon class="st35" points="325.46,1042.27 325.46,1043.31 356.24,1043.31 356.24,1074.39 357.21,1074.39 357.21,1042.27 
											"/>
				</g>
				<path class="st39" d="M362.93,1040.88c0,0.97-0.87,1.75-1.93,1.75h-39.88c-1.07,0-1.93-0.79-1.93-1.75l0,0
					c0-0.97,0.87-1.75,1.93-1.75H361C362.07,1039.13,362.93,1039.92,362.93,1040.88L362.93,1040.88z"/>
			</g>
			<path class="st32" d="M408.53,1008.67v-8.58c0-1.53-1.21-2.77-2.71-2.77h-87.66c-1.5,0-2.71,1.24-2.71,2.77v8.58H408.53z"/>
			<g>
				<g>
					<g>
						<path class="st40" d="M293.1,1039.78c0.21,4.06,3.56,7.29,7.68,7.29c4.11,0,7.46-3.23,7.67-7.29H293.1z"/>
						<path class="st0" d="M308.45,1039.78c0.21,4.06,3.56,7.29,7.68,7.29c4.11,0,7.46-3.23,7.68-7.29H308.45z"/>
						<path class="st40" d="M323.8,1039.78c0.21,4.06,3.56,7.29,7.68,7.29c4.11,0,7.46-3.23,7.67-7.29H323.8z"/>
						<path class="st0" d="M338.9,1039.78c0.21,4.06,3.56,7.29,7.67,7.29c4.11,0,7.46-3.23,7.67-7.29H338.9z"/>
						<path class="st41" d="M354.25,1039.78c0.21,4.06,3.56,7.29,7.68,7.29c4.11,0,7.46-3.23,7.68-7.29H354.25z"/>
					</g>
					<g>
						<path class="st40" d="M430.75,1039.78c-0.21,4.06-3.56,7.29-7.68,7.29c-4.11,0-7.46-3.23-7.67-7.29H430.75z"/>
						<path class="st0" d="M415.4,1039.78c-0.22,4.06-3.56,7.29-7.68,7.29c-4.11,0-7.46-3.23-7.68-7.29H415.4z"/>
						<path class="st40" d="M400.04,1039.78c-0.21,4.06-3.56,7.29-7.68,7.29c-4.11,0-7.46-3.23-7.67-7.29H400.04z"/>
						<path class="st0" d="M384.95,1039.78c-0.21,4.06-3.56,7.29-7.68,7.29c-4.11,0-7.46-3.23-7.68-7.29H384.95z"/>
						<path class="st40" d="M369.6,1039.78c-0.21,4.06-3.56,7.29-7.67,7.29c-4.12,0-7.46-3.23-7.68-7.29H369.6z"/>
					</g>
					<g>
						<polygon class="st32" points="359.79,1039.78 293.08,1039.78 315.25,1010.43 359.79,1010.43 						"/>
						<polygon class="st42" points="358.09,1039.78 308.47,1039.78 325.97,1010.43 359.79,1010.43 						"/>
						<polygon class="st32" points="358.09,1039.78 323.7,1039.78 336.58,1010.43 359.79,1010.43 						"/>
						<polygon class="st42" points="360.92,1039.78 338.9,1039.78 347.17,1010.43 360.51,1010.43 						"/>
						<polygon class="st32" points="361.93,1010.43 357.86,1010.43 354.25,1039.78 361.93,1039.78 						"/>
					</g>
					<g>
						<polygon class="st40" points="364.06,1039.78 430.77,1039.78 408.6,1010.43 364.06,1010.43 						"/>
						<polygon class="st42" points="365.76,1039.78 415.38,1039.78 397.88,1010.43 364.06,1010.43 						"/>
						<polygon class="st32" points="365.76,1039.78 400.15,1039.78 387.27,1010.43 364.06,1010.43 						"/>
						<polygon class="st42" points="362.93,1039.78 384.95,1039.78 376.68,1010.43 363.35,1010.43 						"/>
						<polygon class="st32" points="361.93,1010.43 365.99,1010.43 369.6,1039.78 361.93,1039.78 						"/>
					</g>
				</g>
				<rect x="360.51" y="1010.43" class="st32" width="2.43" height="29.35"/>
			</g>
		</g>
		<g>
			<rect x="421.83" y="999.28" class="st43" width="1.25" height="106.21"/>
			<rect x="423.07" y="1001.83" class="st43" width="32.29" height="1.16"/>
			<rect x="430.75" y="1002.41" class="st43" width="1.32" height="11.63"/>
			<rect x="447.83" y="1002.41" class="st43" width="1.32" height="11.63"/>
			<path class="st44" d="M455.36,1017.9c0,3.3-4.24,5.98-9.47,5.98h-12.24c-5.23,0-9.47-2.68-9.47-5.98v-7.73
				c0-3.3,4.24-5.98,9.47-5.98h12.24c5.23,0,9.47,2.68,9.47,5.98V1017.9z"/>
			<path class="st31" d="M454.31,1017.64c0,3.08-3.95,5.58-8.83,5.58h-11.42c-4.88,0-8.83-2.5-8.83-5.58v-7.21
				c0-3.08,3.95-5.58,8.83-5.58h11.42c4.88,0,8.83,2.5,8.83,5.58V1017.64z"/>
			<g>
				<path class="st45" d="M431.97,1009.77c0.09-0.02,0.17-0.04,0.26-0.07c0.09-0.02,0.18-0.04,0.27-0.06
					c0.09-0.01,0.18-0.02,0.26-0.02c0.18,0,0.34,0.04,0.47,0.12c0.13,0.08,0.23,0.19,0.29,0.34c0.07,0.14,0.1,0.29,0.1,0.46
					c0,0.26-0.05,0.55-0.14,0.88c-0.09,0.33-0.23,0.67-0.4,1.01c-0.17,0.34-0.38,0.67-0.61,0.97c-0.32,0.41-0.71,0.74-1.15,1
					c-0.45,0.25-0.86,0.38-1.23,0.38c-0.28,0-0.52-0.08-0.73-0.23c-0.21-0.15-0.38-0.37-0.5-0.66c-0.12-0.29-0.18-0.62-0.18-1.01
					c0-0.52,0.14-1.04,0.43-1.56c0.28-0.52,0.64-0.99,1.07-1.42c0.43-0.42,0.87-0.76,1.31-1.02c0.44-0.26,0.8-0.38,1.08-0.38
					c0.22,0,0.4,0.07,0.52,0.21c0.12,0.14,0.23,0.36,0.34,0.67c-0.29,0.01-0.55,0.04-0.77,0.11
					C432.43,1009.54,432.21,1009.64,431.97,1009.77z M430.77,1010.73c-0.22,0.24-0.45,0.55-0.67,0.92
					c-0.23,0.38-0.41,0.74-0.55,1.11c-0.14,0.36-0.21,0.64-0.21,0.83c0,0.47,0.22,0.71,0.66,0.71c0.31,0,0.71-0.21,1.19-0.62
					c0.49-0.42,0.91-0.92,1.27-1.5c0.36-0.58,0.54-1.12,0.54-1.6c0-0.35-0.14-0.53-0.42-0.53c-0.22,0-0.48,0.09-0.79,0.26
					c-0.31,0.17-0.61,0.41-0.89,0.73c-0.1,0.11-0.3,0.39-0.6,0.84C430.36,1011.57,430.51,1011.19,430.77,1010.73z"/>
				<path class="st45" d="M433.91,1013.51v-0.31c0.17-0.2,0.3-0.38,0.39-0.52c-0.1-0.04-0.18-0.08-0.22-0.13
					c-0.05-0.05-0.07-0.13-0.07-0.23c0-0.11,0.05-0.26,0.14-0.43c0.1-0.17,0.21-0.34,0.35-0.49c0.14-0.15,0.27-0.25,0.38-0.3
					c0.04-0.02,0.09-0.03,0.13-0.03c0.06,0,0.1,0.03,0.1,0.09c0,0.05-0.05,0.16-0.15,0.33c0.65-0.1,1.07-0.15,1.24-0.15
					c0.07,0,0.11,0.01,0.14,0.02c0.05,0.03,0.1,0.09,0.13,0.2c0.03,0.1,0.05,0.21,0.05,0.31c0,0.07-0.03,0.14-0.09,0.22
					c-0.06,0.08-0.16,0.19-0.3,0.34c-0.17,0.18-0.31,0.38-0.42,0.59c-0.11,0.21-0.17,0.37-0.17,0.48c0,0.15,0.09,0.22,0.28,0.22
					c0.19,0,0.53-0.2,1.01-0.59v0.32c-0.26,0.28-0.48,0.49-0.65,0.65c-0.17,0.16-0.33,0.29-0.48,0.38
					c-0.15,0.09-0.28,0.14-0.39,0.14c-0.13,0-0.24-0.06-0.33-0.18c-0.09-0.12-0.13-0.3-0.13-0.53c0-0.14,0.04-0.29,0.1-0.47
					c0.07-0.17,0.17-0.36,0.31-0.57c0.13-0.21,0.29-0.41,0.45-0.61c-0.09,0.02-0.19,0.04-0.3,0.06c-0.11,0.02-0.23,0.04-0.35,0.06
					c-0.12,0.02-0.22,0.04-0.29,0.05C434.57,1012.84,434.29,1013.19,433.91,1013.51z"/>
				<path class="st45" d="M437.36,1012.3c0.48-0.44,0.95-0.76,1.4-0.98s0.8-0.32,1.05-0.32c0.07,0,0.13,0.03,0.19,0.08
					c0.06,0.06,0.1,0.12,0.14,0.19c0.03,0.07,0.05,0.13,0.05,0.16c0,0.06-0.02,0.1-0.07,0.13c-0.04,0.03-0.12,0.06-0.23,0.1
					c0.02,0.05,0.05,0.12,0.09,0.2c0.04,0.08,0.06,0.14,0.08,0.19c0.02,0.05,0.03,0.09,0.03,0.13c0,0.08-0.08,0.22-0.23,0.42
					c-0.15,0.21-0.26,0.36-0.32,0.46c-0.06,0.1-0.09,0.22-0.09,0.36c0,0.23,0.11,0.35,0.32,0.35c0.22,0,0.57-0.21,1.04-0.62v0.29
					c-0.8,0.89-1.38,1.34-1.72,1.34c-0.12,0-0.21-0.04-0.26-0.12c-0.05-0.08-0.08-0.2-0.08-0.36c0-0.25,0.09-0.61,0.27-1.09
					c-0.46,0.51-0.81,0.88-1.03,1.1c-0.22,0.22-0.41,0.33-0.56,0.33c-0.07,0-0.16-0.06-0.26-0.18c-0.1-0.12-0.2-0.28-0.28-0.47
					c-0.08-0.19-0.12-0.39-0.12-0.6c0-0.15,0.01-0.27,0.04-0.37c0.03-0.1,0.08-0.2,0.17-0.31
					C437.05,1012.61,437.18,1012.47,437.36,1012.3z M439.64,1011.77c-0.82,0.38-1.41,0.7-1.76,0.96c-0.35,0.26-0.53,0.54-0.53,0.81
					c0,0.1,0.02,0.19,0.05,0.25c0.04,0.07,0.08,0.1,0.14,0.1c0.04,0,0.1-0.02,0.19-0.07c0.33-0.2,0.64-0.45,0.91-0.77
					C438.92,1012.74,439.25,1012.32,439.64,1011.77z"/>
				<path class="st45" d="M443.97,1012.29c-0.56,0.62-0.84,1.05-0.84,1.3c0,0.14,0.05,0.2,0.17,0.2c0.09,0,0.21-0.05,0.36-0.14
					c0.15-0.1,0.38-0.27,0.69-0.52v0.33c-0.45,0.44-0.8,0.77-1.04,0.96c-0.24,0.2-0.44,0.29-0.59,0.29c-0.26,0-0.39-0.17-0.39-0.51
					c0-0.1,0.02-0.2,0.05-0.3c0.03-0.1,0.08-0.2,0.13-0.31c0.06-0.11,0.14-0.26,0.25-0.46c0.11-0.2,0.25-0.42,0.39-0.67
					c-0.18,0.09-0.41,0.27-0.68,0.55c-0.18,0.17-0.33,0.33-0.45,0.49c-0.12,0.15-0.26,0.33-0.4,0.51c-0.14,0.19-0.24,0.32-0.31,0.38
					c-0.06,0.06-0.13,0.1-0.2,0.1c-0.1,0-0.2-0.11-0.28-0.32c-0.09-0.21-0.13-0.46-0.13-0.74c0-0.17,0.02-0.31,0.06-0.41
					c0.04-0.1,0.12-0.24,0.24-0.42c0.22-0.34,0.41-0.58,0.57-0.74c0.16-0.16,0.31-0.24,0.46-0.24c0.1,0,0.18,0.02,0.25,0.05
					c0.06,0.04,0.09,0.09,0.09,0.16c0,0.03-0.01,0.06-0.03,0.1c-0.02,0.04-0.04,0.07-0.06,0.1c-0.02,0.03-0.07,0.08-0.15,0.17
					c-0.5,0.55-0.75,0.92-0.75,1.08c0,0.09,0.03,0.14,0.09,0.14c0.04,0,0.11-0.06,0.22-0.18c0.11-0.12,0.25-0.28,0.42-0.48
					c0.17-0.2,0.38-0.41,0.61-0.62c0.24-0.22,0.5-0.42,0.81-0.62c0.17-0.12,0.31-0.18,0.42-0.18c0.05,0,0.1,0.07,0.15,0.21
					c0.05,0.14,0.07,0.28,0.07,0.42C444.17,1012.04,444.1,1012.14,443.97,1012.29z"/>
				<path class="st45" d="M448.1,1013.47l-1.58,1.3c-0.45,0.77-0.85,1.34-1.21,1.72c-0.36,0.38-0.64,0.57-0.81,0.57
					c-0.1,0-0.14-0.06-0.14-0.18c0-0.23,0.12-0.52,0.35-0.88c0.09-0.14,0.2-0.28,0.32-0.41c0.12-0.13,0.23-0.25,0.34-0.35
					c0.11-0.1,0.25-0.22,0.42-0.36c0.17-0.14,0.29-0.24,0.36-0.3c0.32-0.65,0.54-1.14,0.68-1.48c-0.3,0.32-0.56,0.58-0.78,0.78
					c-0.22,0.2-0.43,0.36-0.61,0.47c-0.19,0.11-0.35,0.16-0.5,0.16c-0.16,0-0.31-0.13-0.45-0.39c-0.14-0.26-0.21-0.52-0.21-0.8
					c0-0.13,0.03-0.26,0.09-0.4c0.06-0.14,0.15-0.29,0.28-0.45c0.13-0.16,0.28-0.32,0.48-0.49c0.19-0.17,0.42-0.33,0.68-0.49
					c0.49-0.31,0.87-0.46,1.15-0.46c0.2,0,0.3,0.07,0.3,0.22c0,0.21-0.22,0.41-0.66,0.6c-0.27,0.12-0.54,0.27-0.8,0.47
					c-0.27,0.19-0.48,0.4-0.64,0.62c-0.16,0.22-0.25,0.41-0.25,0.59c0,0.09,0.02,0.15,0.06,0.2c0.04,0.05,0.1,0.08,0.16,0.08
					c0.11,0,0.24-0.05,0.38-0.15c0.14-0.1,0.35-0.28,0.63-0.54c0.13-0.12,0.29-0.31,0.51-0.57c0.21-0.26,0.39-0.46,0.52-0.6
					c0.14-0.14,0.26-0.21,0.37-0.21c0.06,0,0.11,0.02,0.15,0.06c0.04,0.04,0.06,0.1,0.06,0.17c0,0.15-0.06,0.36-0.17,0.64
					c-0.12,0.28-0.32,0.73-0.63,1.36l1.15-0.84V1013.47z"/>
				<path class="st45" d="M448.83,1013.32v0.12c0,0.19,0.05,0.33,0.14,0.44c0.09,0.1,0.21,0.16,0.36,0.16
					c0.16,0,0.32-0.04,0.48-0.11c0.17-0.07,0.33-0.17,0.5-0.29c0.17-0.12,0.37-0.28,0.6-0.49v0.29c-0.36,0.43-0.7,0.76-1.01,0.99
					c-0.31,0.23-0.63,0.34-0.96,0.34c-0.28,0-0.5-0.11-0.67-0.33c-0.16-0.22-0.25-0.52-0.25-0.9c0-0.33,0.08-0.64,0.23-0.91
					c0.16-0.27,0.41-0.56,0.76-0.86c0.24-0.21,0.48-0.36,0.72-0.47c0.24-0.1,0.45-0.16,0.64-0.16c0.15,0,0.27,0.03,0.35,0.1
					c0.09,0.07,0.13,0.17,0.13,0.31c0,0.2-0.07,0.4-0.22,0.6c-0.15,0.2-0.38,0.39-0.68,0.59
					C449.65,1012.95,449.28,1013.14,448.83,1013.32z M448.88,1013.01c0.29-0.11,0.53-0.25,0.73-0.41c0.2-0.16,0.35-0.32,0.45-0.47
					c0.1-0.15,0.15-0.26,0.15-0.33c0-0.07-0.03-0.11-0.1-0.11c-0.06,0-0.15,0.04-0.28,0.11c-0.13,0.07-0.26,0.17-0.39,0.29
					c-0.13,0.12-0.25,0.26-0.35,0.41C448.97,1012.65,448.91,1012.82,448.88,1013.01z"/>
			</g>
			<g>
				<path class="st45" d="M431.95,1018.35c-0.05-0.09-0.12-0.17-0.22-0.24c-0.1-0.07-0.21-0.13-0.33-0.17
					c-0.12-0.04-0.25-0.08-0.38-0.1c-0.39-0.06-0.75-0.18-1.09-0.38c-0.03-0.02-0.06-0.05-0.09-0.1c-0.03-0.05-0.05-0.1-0.05-0.14
					c0-0.17,0.03-0.34,0.08-0.51c0.06-0.17,0.13-0.3,0.22-0.4c0.14-0.16,0.4-0.3,0.77-0.42c0.37-0.12,0.79-0.18,1.25-0.18
					c0.28,0,0.49,0.02,0.64,0.06c0.15,0.04,0.23,0.11,0.23,0.2c0,0.14-0.02,0.26-0.06,0.33c-0.04,0.08-0.08,0.13-0.13,0.16
					c-0.04,0.03-0.13,0.06-0.24,0.11c-0.12,0.04-0.23,0.09-0.32,0.13c-0.09,0.05-0.17,0.09-0.23,0.13c-0.06,0.04-0.1,0.06-0.12,0.06
					c-0.02,0-0.03-0.01-0.03-0.02c0-0.03,0.04-0.08,0.1-0.15c0.07-0.07,0.15-0.13,0.25-0.18c0.11-0.06,0.16-0.09,0.16-0.11
					c0-0.02-0.06-0.04-0.18-0.04c-0.36,0-0.69,0.03-0.99,0.1c-0.3,0.06-0.54,0.15-0.72,0.25c-0.17,0.1-0.26,0.21-0.26,0.32
					c0,0.07,0.04,0.12,0.11,0.14c0.07,0.03,0.23,0.07,0.48,0.14c0.25,0.07,0.47,0.14,0.66,0.23c0.28,0.12,0.49,0.24,0.62,0.37
					c0.14,0.13,0.2,0.27,0.2,0.43c0,0.11-0.03,0.22-0.08,0.33c-0.05,0.11-0.13,0.21-0.23,0.3c-0.1,0.09-0.22,0.17-0.35,0.23
					c-0.11,0.05-0.26,0.09-0.43,0.14c-0.17,0.04-0.36,0.08-0.56,0.1c-0.2,0.02-0.39,0.04-0.58,0.04c-0.34,0-0.61-0.03-0.81-0.1
					c-0.21-0.06-0.31-0.16-0.31-0.29c0-0.06,0.03-0.15,0.1-0.27c0.07-0.12,0.15-0.21,0.25-0.25c0.08-0.03,0.16-0.05,0.24-0.06
					c0.08,0,0.12,0,0.12,0.03c0,0.01,0,0.01-0.01,0.02c-0.01,0.01-0.01,0.01-0.02,0.01c-0.01,0-0.02,0.01-0.02,0.01
					c-0.04,0.01-0.07,0.03-0.09,0.04c-0.02,0.01-0.04,0.02-0.06,0.03c-0.01,0.01-0.02,0.02-0.02,0.04c0,0.04,0.2,0.06,0.6,0.06
					c0.35,0,0.63-0.01,0.85-0.04c0.22-0.03,0.42-0.07,0.59-0.14C431.66,1018.55,431.81,1018.46,431.95,1018.35z"/>
				<path class="st45" d="M433.8,1016.77h0.13c0.1-0.18,0.2-0.31,0.28-0.39c0.08-0.08,0.18-0.11,0.28-0.11
					c0.11,0,0.16,0.02,0.16,0.07c0,0.02-0.04,0.09-0.13,0.19c-0.08,0.1-0.15,0.19-0.19,0.26c0.07,0.01,0.12,0.01,0.17,0.02
					c0.05,0,0.09,0.01,0.12,0.01c-0.11,0.2-0.25,0.41-0.41,0.63c-0.05,0-0.1-0.01-0.14-0.01s-0.07-0.01-0.11-0.01
					c-0.04,0-0.08-0.01-0.14-0.01c-0.1,0.17-0.19,0.32-0.26,0.45c-0.07,0.13-0.13,0.25-0.16,0.36c-0.04,0.11-0.06,0.21-0.06,0.31
					c0,0.13,0.05,0.2,0.16,0.2c0.07,0,0.17-0.04,0.29-0.12c0.12-0.08,0.28-0.2,0.48-0.36v0.19c-0.52,0.57-0.91,0.85-1.16,0.85
					c-0.09,0-0.16-0.03-0.21-0.1c-0.05-0.07-0.08-0.15-0.08-0.26c0-0.07,0.01-0.16,0.04-0.25c0.03-0.1,0.08-0.25,0.16-0.45
					c-0.03,0.02-0.05,0.04-0.08,0.07c-0.02,0.02-0.05,0.04-0.07,0.06c-0.02,0.02-0.04,0.04-0.06,0.06
					c-0.02,0.02-0.05,0.04-0.07,0.06v-0.2c0.2-0.17,0.45-0.47,0.74-0.9c-0.03,0-0.06,0-0.08,0c-0.02,0-0.05,0-0.09,0
					c-0.11,0-0.2,0.01-0.25,0.02c-0.02,0.01-0.04,0.01-0.07,0.02s-0.03,0.01-0.04,0.01c-0.01,0-0.01,0-0.01-0.02
					c0-0.06,0.04-0.16,0.12-0.29c0.06-0.11,0.12-0.19,0.18-0.24c0.06-0.05,0.13-0.09,0.21-0.11
					C433.54,1016.78,433.65,1016.77,433.8,1016.77z"/>
				<path class="st45" d="M436.13,1018.27v0.19c-0.13,0.12-0.23,0.19-0.31,0.23c-0.08,0.04-0.19,0.05-0.33,0.05
					c-0.25,0.3-0.47,0.45-0.66,0.45c-0.11,0-0.21-0.04-0.3-0.11c-0.09-0.07-0.16-0.17-0.21-0.29c-0.05-0.12-0.08-0.26-0.08-0.41
					c0-0.12,0.04-0.26,0.12-0.41c0.08-0.15,0.19-0.29,0.32-0.42c0.13-0.13,0.27-0.24,0.42-0.32c0.15-0.08,0.29-0.12,0.41-0.12
					c0.09,0,0.16,0.01,0.21,0.04c0.05,0.03,0.08,0.07,0.08,0.12c0,0.04-0.02,0.08-0.07,0.13c0.07,0.02,0.12,0.04,0.15,0.08
					c0.03,0.04,0.04,0.1,0.04,0.2c0,0.09-0.02,0.21-0.06,0.35c-0.04,0.14-0.1,0.27-0.18,0.4l0.05,0.05h0.04
					c0.03,0,0.06-0.01,0.1-0.02c0.03-0.02,0.06-0.03,0.08-0.05C435.99,1018.37,436.04,1018.33,436.13,1018.27z M435.53,1017.51
					c-0.16,0.1-0.3,0.18-0.41,0.26c-0.11,0.08-0.21,0.16-0.29,0.24c-0.08,0.08-0.13,0.16-0.16,0.24c-0.05,0.22-0.07,0.33-0.07,0.35
					c0,0.13,0.09,0.19,0.27,0.19c0.08,0,0.22-0.07,0.42-0.21c-0.03-0.09-0.05-0.18-0.05-0.26c0-0.12,0.03-0.25,0.08-0.37
					C435.36,1017.81,435.43,1017.67,435.53,1017.51z"/>
				<path class="st45" d="M436.09,1018.5v-0.19c0.1-0.12,0.18-0.23,0.24-0.32c-0.06-0.02-0.11-0.05-0.13-0.08
					c-0.03-0.03-0.04-0.08-0.04-0.14c0-0.07,0.03-0.16,0.09-0.26c0.06-0.11,0.13-0.21,0.21-0.3c0.08-0.09,0.16-0.15,0.23-0.18
					c0.03-0.01,0.05-0.02,0.08-0.02c0.04,0,0.06,0.02,0.06,0.05c0,0.03-0.03,0.1-0.09,0.2c0.4-0.06,0.65-0.09,0.75-0.09
					c0.04,0,0.07,0,0.08,0.01c0.03,0.02,0.06,0.06,0.08,0.12c0.02,0.06,0.03,0.13,0.03,0.19c0,0.04-0.02,0.08-0.05,0.13
					c-0.04,0.05-0.1,0.12-0.18,0.21c-0.1,0.11-0.19,0.23-0.26,0.36c-0.07,0.13-0.1,0.23-0.1,0.29c0,0.09,0.06,0.14,0.17,0.14
					c0.12,0,0.32-0.12,0.61-0.36v0.19c-0.16,0.17-0.29,0.3-0.4,0.4c-0.1,0.1-0.2,0.17-0.29,0.23c-0.09,0.06-0.17,0.09-0.24,0.09
					c-0.08,0-0.15-0.04-0.2-0.11c-0.05-0.07-0.08-0.18-0.08-0.32c0-0.08,0.02-0.18,0.06-0.28c0.04-0.11,0.1-0.22,0.19-0.35
					c0.08-0.13,0.17-0.25,0.28-0.37c-0.05,0.01-0.12,0.02-0.18,0.04c-0.07,0.01-0.14,0.03-0.21,0.04c-0.08,0.01-0.13,0.02-0.17,0.03
					C436.5,1018.08,436.32,1018.3,436.09,1018.5z"/>
				<path class="st45" d="M438.32,1018.38v0.07c0,0.11,0.03,0.2,0.08,0.27c0.06,0.06,0.13,0.09,0.22,0.09
					c0.09,0,0.19-0.02,0.29-0.07c0.1-0.04,0.2-0.1,0.3-0.18c0.1-0.07,0.22-0.17,0.37-0.3v0.18c-0.22,0.26-0.42,0.46-0.61,0.6
					c-0.19,0.14-0.38,0.21-0.58,0.21c-0.17,0-0.31-0.07-0.41-0.2c-0.1-0.13-0.15-0.32-0.15-0.55c0-0.2,0.05-0.39,0.14-0.55
					c0.09-0.16,0.25-0.34,0.46-0.52c0.15-0.13,0.29-0.22,0.44-0.28c0.15-0.06,0.27-0.1,0.39-0.1c0.09,0,0.16,0.02,0.22,0.06
					c0.05,0.04,0.08,0.1,0.08,0.19c0,0.12-0.04,0.24-0.13,0.36c-0.09,0.12-0.23,0.24-0.42,0.36
					C438.82,1018.15,438.59,1018.27,438.32,1018.38z M438.35,1018.19c0.17-0.07,0.32-0.15,0.45-0.25c0.12-0.1,0.21-0.2,0.27-0.29
					c0.06-0.09,0.09-0.16,0.09-0.2c0-0.04-0.02-0.07-0.06-0.07c-0.03,0-0.09,0.02-0.17,0.07c-0.08,0.04-0.16,0.1-0.24,0.17
					c-0.08,0.07-0.15,0.16-0.21,0.25C438.41,1017.97,438.37,1018.07,438.35,1018.19z"/>
			</g>
		</g>
	</g>
	<g>
		<polygon class="st38" points="570.98,1005.24 582.89,1105.62 564.15,1105.62 564.15,1018.21 565.82,1004.61 		"/>
		<g>
			<path class="st46" d="M570.98,1023.97c0,0.35-0.28,0.63-0.63,0.63h-12.41c-0.35,0-0.63-0.28-0.63-0.63l0,0
				c0-0.35,0.28-0.63,0.63-0.63h12.41C570.7,1023.34,570.98,1023.62,570.98,1023.97L570.98,1023.97z"/>
			<path class="st46" d="M570.98,1005.24c0,0.34-0.28,0.63-0.63,0.63h-12.41c-0.35,0-0.63-0.28-0.63-0.63l0,0
				c0-0.35,0.28-0.63,0.63-0.63h12.41C570.7,1004.61,570.98,1004.89,570.98,1005.24L570.98,1005.24z"/>
			<path class="st46" d="M569.39,1006.94c0,2.58-2.34,4.67-5.24,4.67c-2.89,0-5.24-2.09-5.24-4.67c0-2.58,2.34-4.67,5.24-4.67
				C567.04,1002.27,569.39,1004.37,569.39,1006.94z"/>
			<path class="st31" d="M559.15,1005.24c-1.79,2.24-2.94,5.67-2.94,9.51c0,3.35,0.87,6.39,2.29,8.6h11.31
				c1.42-2.21,2.29-5.25,2.29-8.6c0-3.84-1.15-7.27-2.94-9.51H559.15z"/>
			<path class="st46" d="M568.18,1023.97l-3.39-0.46v-0.17l-0.64,0.08l-0.64-0.08v0.17l-3.39,0.46c0,0,2.73,2.33,2.39,6.43
				c0.38,0,0.69,0,0.96,0c0,0,0.01,0,0.05,0c0.11,0,0.42,0,1.28,0c0.02,0,0.03,0,0.05,0c0.27,0,0.58,0,0.96,0
				C565.45,1026.3,568.18,1023.97,568.18,1023.97z"/>
			<rect x="563.46" y="1029.04" class="st46" width="1.37" height="61.95"/>
			<rect x="560.99" y="1090.42" class="st46" width="6.31" height="15.26"/>
			<rect x="562.47" y="1066.28" class="st46" width="3.35" height="1.37"/>
			<rect x="562.47" y="1037.12" class="st46" width="3.35" height="1.37"/>
		</g>
	</g>
	<g>
		<polygon class="st38" points="316.88,1005.24 328.79,1105.62 310.04,1105.62 310.04,1018.21 311.72,1004.61 		"/>
		<g>
			<path class="st46" d="M316.88,1023.97c0,0.35-0.28,0.63-0.63,0.63h-12.41c-0.35,0-0.63-0.28-0.63-0.63l0,0
				c0-0.35,0.28-0.63,0.63-0.63h12.41C316.6,1023.34,316.88,1023.62,316.88,1023.97L316.88,1023.97z"/>
			<path class="st46" d="M316.88,1005.24c0,0.34-0.28,0.63-0.63,0.63h-12.41c-0.35,0-0.63-0.28-0.63-0.63l0,0
				c0-0.35,0.28-0.63,0.63-0.63h12.41C316.6,1004.61,316.88,1004.89,316.88,1005.24L316.88,1005.24z"/>
			<path class="st46" d="M315.28,1006.94c0,2.58-2.34,4.67-5.24,4.67c-2.89,0-5.24-2.09-5.24-4.67c0-2.58,2.34-4.67,5.24-4.67
				C312.94,1002.27,315.28,1004.37,315.28,1006.94z"/>
			<path class="st31" d="M305.04,1005.24c-1.79,2.24-2.94,5.67-2.94,9.51c0,3.35,0.88,6.39,2.29,8.6h11.31
				c1.42-2.21,2.29-5.25,2.29-8.6c0-3.84-1.15-7.27-2.94-9.51H305.04z"/>
			<path class="st46" d="M314.08,1023.97l-3.39-0.46v-0.17l-0.64,0.08l-0.64-0.08v0.17l-3.39,0.46c0,0,2.73,2.33,2.39,6.43
				c0.38,0,0.69,0,0.96,0c0,0,0.01,0,0.05,0c0.1,0,0.42,0,1.27,0c0.02,0,0.03,0,0.05,0c0.27,0,0.58,0,0.96,0
				C311.34,1026.3,314.08,1023.97,314.08,1023.97z"/>
			<rect x="309.36" y="1029.04" class="st46" width="1.37" height="61.95"/>
			<rect x="306.89" y="1090.42" class="st46" width="6.31" height="15.26"/>
			<rect x="308.37" y="1066.28" class="st46" width="3.35" height="1.37"/>
			<rect x="308.37" y="1037.12" class="st46" width="3.35" height="1.37"/>
		</g>
	</g>
	<g>
		<polygon class="st38" points="62.77,1005.24 74.69,1105.62 55.94,1105.62 55.94,1018.21 57.62,1004.61 		"/>
		<g>
			<path class="st46" d="M62.77,1023.97c0,0.35-0.28,0.63-0.63,0.63H49.74c-0.35,0-0.63-0.28-0.63-0.63l0,0
				c0-0.35,0.28-0.63,0.63-0.63h12.41C62.49,1023.34,62.77,1023.62,62.77,1023.97L62.77,1023.97z"/>
			<path class="st46" d="M62.77,1005.24c0,0.34-0.28,0.63-0.63,0.63H49.74c-0.35,0-0.63-0.28-0.63-0.63l0,0
				c0-0.35,0.28-0.63,0.63-0.63h12.41C62.49,1004.61,62.77,1004.89,62.77,1005.24L62.77,1005.24z"/>
			<path class="st46" d="M61.18,1006.94c0,2.58-2.35,4.67-5.24,4.67c-2.89,0-5.24-2.09-5.24-4.67c0-2.58,2.34-4.67,5.24-4.67
				C58.84,1002.27,61.18,1004.37,61.18,1006.94z"/>
			<path class="st31" d="M50.94,1005.24c-1.79,2.24-2.94,5.67-2.94,9.51c0,3.35,0.87,6.39,2.29,8.6H61.6
				c1.42-2.21,2.29-5.25,2.29-8.6c0-3.84-1.15-7.27-2.94-9.51H50.94z"/>
			<path class="st46" d="M59.98,1023.97l-3.4-0.46v-0.17l-0.64,0.08l-0.64-0.08v0.17l-3.39,0.46c0,0,2.73,2.33,2.39,6.43
				c0.38,0,0.69,0,0.96,0c0,0,0.01,0,0.05,0c0.1,0,0.42,0,1.28,0c0.02,0,0.03,0,0.05,0c0.27,0,0.58,0,0.96,0
				C57.24,1026.3,59.98,1023.97,59.98,1023.97z"/>
			<rect x="55.26" y="1029.04" class="st46" width="1.37" height="61.95"/>
			<rect x="52.79" y="1090.42" class="st46" width="6.31" height="15.26"/>
			<rect x="54.27" y="1066.28" class="st46" width="3.35" height="1.37"/>
			<rect x="54.27" y="1037.12" class="st46" width="3.35" height="1.37"/>
		</g>
	</g>
	<radialGradient id="SVGID_1_" cx="320" cy="408" r="315.4694" gradientUnits="userSpaceOnUse">
		<stop  offset="0" style="stop-color:#FFFFFF"/>
		<stop  offset="1" style="stop-color:#FFFFFF;stop-opacity:0"/>
	</radialGradient>
	<circle class="st47" cx="320" cy="408" r="186.24"/>
</g>
</svg>
